<svg width="59" height="73" viewBox="0 0 59 73" fill="none" xmlns="http://www.w3.org/2000/svg">
<g filter="url(#filter0_d)">
<path fill-rule="evenodd" clip-rule="evenodd" d="M29.0772 0C42.9521 0 54.1828 11.2307 54.1828 25.0772C54.1828 38.9237 42.9521 50.1544 29.0772 50.1544C15.2307 50.1544 4 38.9237 4 25.0772C4 11.2307 15.2307 0 29.0772 0Z" fill="#56B947"/>
<path fill-rule="evenodd" clip-rule="evenodd" d="M29.0771 3.8147e-06C42.9521 3.8147e-06 54.1828 11.2307 54.1828 25.0772C54.1828 38.9237 42.9521 50.1544 29.0771 50.1544V3.8147e-06Z" fill="#459F46"/>
<path fill-rule="evenodd" clip-rule="evenodd" d="M23.3338 8.35905C36.1852 0.909822 51.9935 11.9131 48.3542 27.9204C44.4589 44.866 27.8546 46.9984 14.8042 41.2551C11.8188 39.9472 11.961 37.4736 14.4061 35.5686C27.2006 25.7027 28.4516 19.8741 29.2762 19.7888C30.4134 19.6751 28.935 28.9155 31.5223 29.74C34.3371 30.593 39.2274 25.3331 39.1137 18.6799C39.0284 11.9984 32.1762 8.07474 23.3907 9.58164C21.173 9.95126 21.3436 9.52477 23.3338 8.35905ZM28.1389 32.0431C26.4898 33.4931 26.6604 33.4362 23.5044 36.3363C21.7416 37.9569 21.2014 38.2981 21.5426 38.3834C22.3387 38.6393 29.0487 38.4403 27.7408 33.6068C27.684 33.3794 28.2242 32.5264 28.3948 32.0999C28.5654 31.6734 28.3379 31.8725 28.1389 32.0431Z" fill="#E8E85F"/>
<path fill-rule="evenodd" clip-rule="evenodd" d="M29.0771 6.25507C40.3932 4.26482 51.4248 14.2445 48.3257 27.9488C45.7953 38.9521 37.8911 43.7003 29.0771 44.0983V19.8741C29.134 19.8457 29.1909 19.8172 29.2477 19.8172C30.385 19.7035 28.9066 28.944 31.4939 29.7685C34.3087 30.6215 39.199 25.3615 39.0853 18.7084C39 13.5906 34.9626 10.065 29.1056 9.41105V6.25507H29.0771Z" fill="#BFD330"/>
<path d="M12.5296 58.6271H14.5767C15.0601 58.6271 15.4012 58.684 15.6571 58.7408C15.9699 58.8261 16.2542 58.9967 16.4817 59.2526C16.7376 59.5085 16.8797 59.7928 17.0219 60.1625C17.1356 60.5036 17.2209 60.9586 17.2209 61.4703C17.2209 61.9537 17.164 62.3517 17.0503 62.6645C16.8797 63.0625 16.7091 63.4037 16.4532 63.6312C16.2258 63.8302 15.9699 63.9724 15.6571 64.0861C15.4012 64.1714 15.0601 64.1998 14.6336 64.1998H12.5012V58.6271H12.5296ZM13.6384 59.5654V63.2616H14.4914C14.8042 63.2616 15.0316 63.2616 15.1738 63.2331C15.3444 63.1763 15.4865 63.1194 15.6287 62.9773C15.7424 62.892 15.8562 62.6929 15.913 62.437C15.9983 62.1812 16.0267 61.8684 16.0267 61.4135C16.0267 60.9586 15.9983 60.6458 15.913 60.3899C15.8562 60.1625 15.7424 59.9919 15.6003 59.8497C15.4865 59.736 15.2875 59.6222 15.0885 59.5938C14.9179 59.5654 14.6051 59.5369 14.1502 59.5369H13.6384V59.5654ZM18.1592 64.1998V58.5987H20.519C21.1161 58.5987 21.571 58.6556 21.8553 58.7693C22.1112 58.8546 22.3387 59.0536 22.4809 59.3095C22.6514 59.5654 22.7367 59.8781 22.7367 60.1909C22.7367 60.5889 22.623 60.9586 22.3671 61.2429C22.1112 61.4988 21.77 61.6978 21.2583 61.7547C21.5142 61.9253 21.7132 62.0674 21.8553 62.238C22.0259 62.4086 22.225 62.7214 22.5093 63.1478L23.1632 64.2283H21.8553L21.0308 63.0341C20.7465 62.5792 20.519 62.2949 20.4337 62.2096C20.3484 62.0958 20.2063 62.0106 20.0925 61.9537C19.9788 61.9253 19.7798 61.8968 19.5239 61.8968H19.2964V64.2283H18.1592V64.1998ZM19.2964 60.987H20.121C20.6896 60.987 21.0024 60.9586 21.173 60.9301C21.2867 60.9017 21.4004 60.8164 21.4857 60.7027C21.5426 60.5889 21.571 60.4468 21.571 60.2478C21.571 60.0487 21.5426 59.935 21.4004 59.7928C21.3151 59.6791 21.173 59.5938 21.0024 59.5654C20.9171 59.5654 20.6328 59.5369 20.1778 59.5369H19.2964V60.987ZM28.8497 64.1998H27.6271L27.1437 62.9488H24.8976L24.4142 64.1998H23.2485L25.4094 58.5987H26.6035L28.8497 64.1998ZM26.7457 62.0106L25.978 59.9634L25.2103 62.0106H26.7457ZM32.0341 62.1527V61.2144H34.4792V63.4606C34.2518 63.6881 33.9106 63.8586 33.4557 64.0577C32.9723 64.2283 32.5458 64.3136 32.0625 64.3136C31.4938 64.3136 30.9821 64.1998 30.5556 63.9724C30.1007 63.7165 29.7879 63.3753 29.5889 62.892C29.3614 62.437 29.2761 61.9537 29.2761 61.4135C29.2761 60.8448 29.3899 60.3046 29.6173 59.8781C29.8732 59.4232 30.2144 59.082 30.6978 58.8261C31.0674 58.6271 31.5223 58.5418 32.0625 58.5418C32.7164 58.5418 33.2851 58.7124 33.6831 58.9967C34.0527 59.2811 34.3086 59.6791 34.4508 60.1909L33.3135 60.4183C33.2566 60.134 33.0861 59.9066 32.8586 59.7644C32.6311 59.5938 32.3752 59.5369 32.0625 59.5369C31.5507 59.5369 31.1811 59.7075 30.8683 60.0203C30.584 60.3331 30.4703 60.788 30.4703 61.4135C30.4703 62.0674 30.584 62.5508 30.9252 62.892C31.2095 63.2047 31.5791 63.4037 32.0625 63.4037C32.3184 63.4037 32.5458 63.3469 32.8017 63.2331C33.0292 63.1478 33.2566 63.0341 33.3988 62.9204V62.1812H32.0341V62.1527ZM35.2753 61.4703C35.2753 60.9017 35.3322 60.4184 35.5312 60.0487C35.6449 59.7644 35.8155 59.4801 36.043 59.2526C36.2705 59.0252 36.5263 58.883 36.7822 58.7408C37.1234 58.6271 37.5499 58.5134 37.9764 58.5134C38.8009 58.5134 39.4549 58.7693 39.9666 59.3095C40.45 59.8213 40.7059 60.5036 40.7059 61.4419C40.7059 62.3517 40.45 63.0626 39.9666 63.5743C39.4549 64.0861 38.8293 64.342 38.0048 64.342C37.1518 64.342 36.4979 64.0861 36.0146 63.5743C35.5028 63.0341 35.2753 62.3517 35.2753 61.4703ZM36.4126 61.4419C36.4126 62.0674 36.5832 62.5508 36.8675 62.8635C37.1803 63.2047 37.5215 63.3753 38.0048 63.3753C38.4597 63.3753 38.8009 63.2047 39.1137 62.8635C39.398 62.5508 39.5117 62.0674 39.5117 61.4135C39.5117 60.788 39.398 60.3046 39.1137 59.9919C38.8294 59.6791 38.4597 59.5085 38.0048 59.5085C37.5215 59.5085 37.1518 59.6791 36.8675 59.9919C36.5832 60.3046 36.4126 60.7595 36.4126 61.4419ZM41.5873 64.1998V58.5987H42.6961L44.9707 62.3233V58.5987H46.0511V64.1998H44.9138L42.6677 60.5605V64.1998H41.5873Z" fill="#414042"/>
</g>
<defs>
<filter id="filter0_d" x="0" y="0" width="58.1828" height="72.342" filterUnits="userSpaceOnUse" color-interpolation-filters="sRGB">
<feFlood flood-opacity="0" result="BackgroundImageFix"/>
<feColorMatrix in="SourceAlpha" type="matrix" values="0 0 0 0 0 0 0 0 0 0 0 0 0 0 0 0 0 0 127 0"/>
<feOffset dy="4"/>
<feGaussianBlur stdDeviation="2"/>
<feColorMatrix type="matrix" values="0 0 0 0 0 0 0 0 0 0 0 0 0 0 0 0 0 0 0.25 0"/>
<feBlend mode="normal" in2="BackgroundImageFix" result="effect1_dropShadow"/>
<feBlend mode="normal" in="SourceGraphic" in2="effect1_dropShadow" result="shape"/>
</filter>
</defs>
</svg>
