<svg width="59" height="73" viewBox="0 0 59 73" fill="none" xmlns="http://www.w3.org/2000/svg">
<g filter="url(#filter0_d)">
<path fill-rule="evenodd" clip-rule="evenodd" d="M29.0772 0C42.9521 0 54.1828 11.2307 54.1828 25.0772C54.1828 38.9237 42.9521 50.1544 29.0772 50.1544C15.2307 50.1544 4 38.9237 4 25.0772C4 11.2307 15.2307 0 29.0772 0Z" fill="#F3B81A"/>
<path fill-rule="evenodd" clip-rule="evenodd" d="M29.0772 3.8147e-06C42.9521 3.8147e-06 54.1828 11.2307 54.1828 25.0772C54.1828 38.9237 42.9521 50.1544 29.0772 50.1544V3.8147e-06Z" fill="#F3971F"/>
<path fill-rule="evenodd" clip-rule="evenodd" d="M14.463 32.4696L31.1243 6.71C32.2331 4.97564 32.489 4.74818 31.9204 6.90902L27.883 22.0349L43.3785 16.7181C44.0325 16.4622 44.0325 17.173 43.7197 17.6564L27.0585 43.416C25.9496 45.1503 25.6937 45.3778 26.2624 43.2169L30.2997 28.0626L14.8326 33.4078C14.1503 33.6637 14.1503 32.9813 14.463 32.4696Z" fill="white"/>
<path fill-rule="evenodd" clip-rule="evenodd" d="M29.0772 9.83754L31.1243 6.71C32.2332 4.97564 32.4891 4.74818 31.9204 6.90902L29.0772 17.5142V9.83754ZM29.0772 21.6085L43.3786 16.7181C44.0326 16.4622 44.0326 17.173 43.7198 17.6564L29.0772 40.2884V32.6401L30.2998 28.091L29.0772 28.4891V21.6085Z" fill="#FFCB05"/>
<path d="M10.3403 64.1998V58.5987H14.4914V59.5369H11.4776V60.788H14.2924V61.6978H11.4776V63.2047H14.6052V64.143H10.3403V64.1998ZM15.5718 64.1998V58.6555H16.7091V63.2616H19.4955V64.1998H15.5718ZM20.32 64.1998V58.5987H24.4711V59.5369H21.4289V60.788H24.2437V61.6978H21.4289V63.2047H24.5564V64.143H20.32V64.1998ZM29.1056 62.1527L30.186 62.4939C30.0154 63.091 29.7311 63.5743 29.3615 63.8587C28.9634 64.143 28.4801 64.3136 27.883 64.3136C27.1153 64.3136 26.5182 64.0577 26.0349 63.5459C25.5515 63.0341 25.2957 62.3517 25.2957 61.4703C25.2957 60.5605 25.5515 59.8213 26.0349 59.3095C26.5182 58.7977 27.1437 58.5134 27.9398 58.5134C28.5938 58.5134 29.1624 58.7408 29.6173 59.1389C29.8732 59.3664 30.0723 59.7075 30.186 60.1625L29.0487 60.4468C28.9918 60.134 28.8497 59.9066 28.6507 59.7644C28.4516 59.5938 28.1957 59.5085 27.883 59.5085C27.4849 59.5085 27.1153 59.6791 26.8594 59.9634C26.6035 60.2478 26.4898 60.7595 26.4898 61.4135C26.4898 62.0959 26.6035 62.6076 26.8594 62.892C27.1153 63.2047 27.4281 63.3753 27.8261 63.3753C28.1389 63.3753 28.3948 63.29 28.6222 63.091C28.8497 62.892 29.0203 62.5792 29.1056 62.1527ZM32.4321 64.1998V59.5654H30.7546V58.6271H35.2185V59.5654H33.541V64.1998H32.4321ZM35.9577 64.1998V58.5987H38.3176C38.9147 58.5987 39.3411 58.6556 39.6255 58.7693C39.9098 58.8546 40.1088 59.0536 40.2794 59.3095C40.45 59.5654 40.5069 59.8781 40.5069 60.1909C40.5069 60.5889 40.3931 60.9586 40.1657 61.2429C39.9098 61.4988 39.5402 61.6978 39.0568 61.7547C39.2843 61.9253 39.5117 62.0674 39.6539 62.238C39.8245 62.4086 40.0235 62.7214 40.2794 63.1478L40.9618 64.2283H39.6255L38.8009 63.0341C38.5166 62.5792 38.3176 62.2949 38.2039 62.2096C38.1186 62.0958 37.9764 62.0106 37.8911 61.9537C37.7774 61.9253 37.5784 61.8968 37.3225 61.8968H37.0666V64.2283H35.9577V64.1998ZM37.0666 60.987H37.9195C38.4598 60.987 38.8009 60.9586 38.9431 60.9301C39.0568 60.9017 39.1706 60.8164 39.2559 60.7027C39.3127 60.5889 39.3696 60.4468 39.3696 60.2478C39.3696 60.0487 39.3127 59.935 39.199 59.7928C39.1137 59.6791 38.9431 59.5938 38.7441 59.5654C38.6588 59.5654 38.4029 59.5369 37.9195 59.5369H37.0666V60.987ZM41.5304 64.1998V58.5987H42.6677V64.1998H41.5304ZM47.3306 62.1527L48.411 62.4939C48.2404 63.091 47.9561 63.5743 47.5865 63.8587C47.1884 64.143 46.7051 64.3136 46.108 64.3136C45.3403 64.3136 44.7433 64.0577 44.2599 63.5459C43.7766 63.0341 43.5207 62.3517 43.5207 61.4703C43.5207 60.5605 43.7766 59.8213 44.2599 59.3095C44.7433 58.7977 45.3688 58.5134 46.1649 58.5134C46.8472 58.5134 47.3875 58.7408 47.8424 59.1389C48.0983 59.3664 48.2973 59.7075 48.411 60.1625L47.2737 60.4468C47.2169 60.134 47.0747 59.9066 46.8757 59.7644C46.6766 59.5938 46.4208 59.5085 46.108 59.5085C45.7099 59.5085 45.3403 59.6791 45.0844 59.9634C44.8286 60.2478 44.7148 60.7595 44.7148 61.4135C44.7148 62.0959 44.8286 62.6076 45.0844 62.892C45.3403 63.2047 45.6815 63.3753 46.0511 63.3753C46.3639 63.3753 46.6198 63.29 46.8472 63.091C47.0747 62.892 47.2453 62.5792 47.3306 62.1527Z" fill="#414042"/>
</g>
<defs>
<filter id="filter0_d" x="0" y="0" width="58.1828" height="72.3136" filterUnits="userSpaceOnUse" color-interpolation-filters="sRGB">
<feFlood flood-opacity="0" result="BackgroundImageFix"/>
<feColorMatrix in="SourceAlpha" type="matrix" values="0 0 0 0 0 0 0 0 0 0 0 0 0 0 0 0 0 0 127 0"/>
<feOffset dy="4"/>
<feGaussianBlur stdDeviation="2"/>
<feColorMatrix type="matrix" values="0 0 0 0 0 0 0 0 0 0 0 0 0 0 0 0 0 0 0.25 0"/>
<feBlend mode="normal" in2="BackgroundImageFix" result="effect1_dropShadow"/>
<feBlend mode="normal" in="SourceGraphic" in2="effect1_dropShadow" result="shape"/>
</filter>
</defs>
</svg>
