<svg width="78" height="78" viewBox="0 0 78 78" fill="none" xmlns="http://www.w3.org/2000/svg">
<g filter="url(#filter0_d)">
<path d="M74 34.9974C74 54.325 58.3302 69.9948 39.0026 69.9948C19.6698 70 4 54.3302 4 34.9974C4 15.6698 19.6698 0 38.9974 0C58.3302 0 74 15.6698 74 34.9974Z" fill="#DC143C"/>
<path d="M33.3608 58.0294H42.3453V35.5347H48.6122L49.2786 28.0021H42.3401C42.3401 28.0021 42.3401 25.1915 42.3401 23.7139C42.3401 21.9367 42.6966 21.234 44.4118 21.234C45.7913 21.234 49.2735 21.234 49.2735 21.234V13.412C49.2735 13.412 44.1484 13.412 43.0531 13.412C36.3677 13.412 33.3557 16.3569 33.3557 21.9935C33.3557 26.9016 33.3557 27.9969 33.3557 27.9969H28.6801V35.6226H33.3557V58.0294H33.3608Z" fill="white"/>
</g>
<defs>
<filter id="filter0_d" x="0" y="0" width="78" height="78" filterUnits="userSpaceOnUse" color-interpolation-filters="sRGB">
<feFlood flood-opacity="0" result="BackgroundImageFix"/>
<feColorMatrix in="SourceAlpha" type="matrix" values="0 0 0 0 0 0 0 0 0 0 0 0 0 0 0 0 0 0 127 0"/>
<feOffset dy="4"/>
<feGaussianBlur stdDeviation="2"/>
<feColorMatrix type="matrix" values="0 0 0 0 0 0 0 0 0 0 0 0 0 0 0 0 0 0 0.25 0"/>
<feBlend mode="normal" in2="BackgroundImageFix" result="effect1_dropShadow"/>
<feBlend mode="normal" in="SourceGraphic" in2="effect1_dropShadow" result="shape"/>
</filter>
</defs>
</svg>
