<svg width="51" height="65" viewBox="0 0 51 65" fill="none" xmlns="http://www.w3.org/2000/svg">
<path fill-rule="evenodd" clip-rule="evenodd" d="M25.0772 0C38.9236 0 50.1828 11.2307 50.1828 25.1056C50.1828 38.9521 38.9236 50.1828 25.0772 50.1828C11.2307 50.1828 0 38.9521 0 25.1056C0 11.2307 11.2307 0 25.0772 0Z" fill="#F6E294"/>
<path fill-rule="evenodd" clip-rule="evenodd" d="M25.0772 0C38.9236 0 50.1828 11.2307 50.1828 25.1056C50.1828 38.9521 38.9236 50.1828 25.0772 50.1828V0Z" fill="#FACD85"/>
<path fill-rule="evenodd" clip-rule="evenodd" d="M10.7474 11.9131C10.2356 13.2778 17.7986 22.4046 17.7417 26.0723C17.7133 27.8351 9.09831 30.7921 11.2307 31.3891C12.6239 31.7872 17.6564 31.0195 17.3436 32.3274C17.0024 33.6637 13.5906 38.8099 14.6142 38.4972C16.6897 37.8432 21.4094 34.7441 24.0252 30.8489C24.9066 29.5126 25.2193 29.4842 26.1576 30.8489C28.7449 34.7726 33.4647 37.8432 35.5686 38.4972C36.5922 38.8099 33.1519 33.6637 32.8392 32.3274C32.498 30.9911 37.5589 31.7872 38.9521 31.3891C41.0845 30.7921 32.4695 27.8351 32.4411 26.0723C32.3558 22.4046 39.9472 13.2778 39.407 11.9131C38.9236 10.6621 30.8205 16.0926 26.5557 20.4712C25.1341 21.9212 24.8781 21.8075 23.6271 20.4712C19.3907 16.0642 11.2307 10.6336 10.7474 11.9131Z" fill="#1FAFDF"/>
<path fill-rule="evenodd" clip-rule="evenodd" d="M25.0772 29.8254C25.3899 29.8254 25.7027 30.1665 26.1576 30.8489C28.7449 34.7726 33.4647 37.8432 35.5687 38.4972C36.5922 38.8099 33.1519 33.6637 32.8392 32.3274C32.498 30.9911 37.5589 31.7872 38.9521 31.3891C41.0845 30.7921 32.4695 27.8351 32.4411 26.0723C32.3558 22.4046 39.9472 13.2778 39.407 11.9131C38.9236 10.6621 30.8205 16.0926 26.5557 20.4712C25.9017 21.1535 25.4752 21.4947 25.0772 21.5232V29.8254Z" fill="#0A87B3"/>
<path d="M14.5004 64.2567V58.6555H18.3387V59.5938H15.6093V60.9301H17.9407V61.8684H15.6093V64.2283H14.5004V64.2567ZM23.883 64.2567H22.6604L22.1771 63.0057H19.9309L19.476 64.2567H18.2819L20.4711 58.6555H21.6369L23.883 64.2567ZM21.779 62.039L21.0114 59.9634L20.2437 62.039H21.779ZM24.4516 64.2567V58.6555H25.5889V64.2567H24.4516ZM26.6409 64.2567V58.6555H29.0008C29.5979 58.6555 30.0243 58.7124 30.3087 58.8262C30.593 58.9114 30.792 59.1105 30.9626 59.3664C31.1332 59.6222 31.1901 59.9066 31.1901 60.2478C31.1901 60.6458 31.0763 61.0154 30.8489 61.2713C30.593 61.5556 30.2234 61.7262 29.74 61.8115C29.9675 61.9253 30.1949 62.0959 30.3371 62.2949C30.5077 62.4655 30.6783 62.7498 30.9626 63.1763L31.645 64.2851H30.2802L29.4557 63.0625C29.1714 62.6076 28.9724 62.3802 28.8586 62.238C28.7733 62.1527 28.6312 62.039 28.5459 62.0106C28.4322 61.9821 28.2331 61.9537 27.9772 61.9537H27.7213V64.2851H26.6409V64.2567ZM27.7498 61.0439H28.6027C29.1429 61.0439 29.4841 61.0154 29.6263 60.987C29.74 60.9301 29.8538 60.8733 29.9391 60.7311C29.9959 60.6458 30.0243 60.4752 30.0243 60.3331C30.0243 60.134 29.9959 59.9919 29.9106 59.8497C29.8253 59.7644 29.6547 59.6507 29.4557 59.6222C29.3704 59.6222 29.1145 59.6222 28.6312 59.6222H27.7498V61.0439ZM33.4646 64.2567V61.8968L31.4175 58.684H32.7538L34.0902 60.9017L35.398 58.684H36.7059L34.6588 61.9537V64.2851H33.4646V64.2567Z" fill="#414042"/>
</svg>
