<svg width="59" height="73" viewBox="0 0 59 73" fill="none" xmlns="http://www.w3.org/2000/svg">
<g filter="url(#filter0_d)">
<path fill-rule="evenodd" clip-rule="evenodd" d="M29.0772 0C42.9236 0 54.1828 11.2307 54.1828 25.1056C54.1828 38.9521 42.9236 50.1828 29.0772 50.1828C15.2307 50.1828 4 38.9521 4 25.1056C4 11.2307 15.2307 0 29.0772 0Z" fill="#F6E294"/>
<path fill-rule="evenodd" clip-rule="evenodd" d="M29.0771 0C42.9236 0 54.1827 11.2307 54.1827 25.1056C54.1827 38.9521 42.9236 50.1828 29.0771 50.1828V0Z" fill="#FACD85"/>
<path fill-rule="evenodd" clip-rule="evenodd" d="M14.7475 11.9131C14.2357 13.2778 21.7987 22.4046 21.7418 26.0723C21.7134 27.8351 13.0984 30.7921 15.2308 31.3891C16.624 31.7872 21.6565 31.0195 21.3438 32.3274C21.0026 33.6637 17.5907 38.8099 18.6143 38.4972C20.6898 37.8432 25.4096 34.7441 28.0253 30.8489C28.9067 29.5126 29.2195 29.4842 30.1577 30.8489C32.7451 34.7726 37.4648 37.8432 39.5688 38.4972C40.5923 38.8099 37.152 33.6637 36.8393 32.3274C36.4981 30.9911 41.559 31.7872 42.9522 31.3891C45.0846 30.7921 36.4697 27.8351 36.4412 26.0723C36.3559 22.4046 43.9473 13.2778 43.4071 11.9131C42.9238 10.6621 34.8206 16.0926 30.5558 20.4712C29.1342 21.9212 28.8783 21.8075 27.6273 20.4712C23.3909 16.0642 15.2309 10.6336 14.7475 11.9131Z" fill="#1FAFDF"/>
<path fill-rule="evenodd" clip-rule="evenodd" d="M29.0771 29.8254C29.3899 29.8254 29.7027 30.1665 30.1576 30.8489C32.7449 34.7726 37.4646 37.8432 39.5686 38.4972C40.5922 38.8099 37.1519 33.6637 36.8391 32.3274C36.498 30.9911 41.5589 31.7872 42.9521 31.3891C45.0845 30.7921 36.4695 27.8351 36.4411 26.0723C36.3558 22.4046 43.9472 13.2778 43.407 11.9131C42.9236 10.6621 34.8205 16.0926 30.5556 20.4712C29.9017 21.1535 29.4752 21.4947 29.0771 21.5232V29.8254Z" fill="#0A87B3"/>
<path d="M18.5005 64.2567V58.6555H22.3388V59.5938H19.6093V60.9301H21.9408V61.8684H19.6093V64.2283H18.5005V64.2567ZM27.8831 64.2567H26.6605L26.1772 63.0057H23.931L23.4761 64.2567H22.282L24.4712 58.6555H25.637L27.8831 64.2567ZM25.7791 62.039L25.0115 59.9634L24.2438 62.039H25.7791ZM28.4517 64.2567V58.6555H29.589V64.2567H28.4517ZM30.641 64.2567V58.6555H33.0009C33.598 58.6555 34.0244 58.7124 34.3088 58.8262C34.5931 58.9114 34.7921 59.1105 34.9627 59.3664C35.1333 59.6222 35.1901 59.9066 35.1901 60.2478C35.1901 60.6458 35.0764 61.0154 34.849 61.2713C34.5931 61.5556 34.2235 61.7262 33.7401 61.8115C33.9676 61.9253 34.195 62.0959 34.3372 62.2949C34.5078 62.4655 34.6784 62.7498 34.9627 63.1763L35.6451 64.2851H34.2803L33.4558 63.0625C33.1715 62.6076 32.9725 62.3802 32.8587 62.238C32.7734 62.1527 32.6313 62.039 32.546 62.0106C32.4322 61.9821 32.2332 61.9537 31.9773 61.9537H31.7214V64.2851H30.641V64.2567ZM31.7499 61.0439H32.6028C33.143 61.0439 33.4842 61.0154 33.6264 60.987C33.7401 60.9301 33.8539 60.8733 33.9392 60.7311C33.996 60.6458 34.0244 60.4752 34.0244 60.3331C34.0244 60.134 33.996 59.9919 33.9107 59.8497C33.8254 59.7644 33.6548 59.6507 33.4558 59.6222C33.3705 59.6222 33.1146 59.6222 32.6313 59.6222H31.7499V61.0439ZM37.4647 64.2567V61.8968L35.4176 58.684H36.7539L38.0902 60.9017L39.3981 58.684H40.706L38.6589 61.9537V64.2851H37.4647V64.2567Z" fill="#414042"/>
</g>
<defs>
<filter id="filter0_d" x="0" y="0" width="58.1828" height="72.2851" filterUnits="userSpaceOnUse" color-interpolation-filters="sRGB">
<feFlood flood-opacity="0" result="BackgroundImageFix"/>
<feColorMatrix in="SourceAlpha" type="matrix" values="0 0 0 0 0 0 0 0 0 0 0 0 0 0 0 0 0 0 127 0"/>
<feOffset dy="4"/>
<feGaussianBlur stdDeviation="2"/>
<feColorMatrix type="matrix" values="0 0 0 0 0 0 0 0 0 0 0 0 0 0 0 0 0 0 0.25 0"/>
<feBlend mode="normal" in2="BackgroundImageFix" result="effect1_dropShadow"/>
<feBlend mode="normal" in="SourceGraphic" in2="effect1_dropShadow" result="shape"/>
</filter>
</defs>
</svg>
