<svg width="59" height="73" viewBox="0 0 59 73" fill="none" xmlns="http://www.w3.org/2000/svg">
<g filter="url(#filter0_d)">
<path fill-rule="evenodd" clip-rule="evenodd" d="M29.0772 0C42.9521 0 54.1828 11.2307 54.1828 25.0772C54.1828 38.9521 42.9521 50.1828 29.0772 50.1828C15.2307 50.1828 4 38.9521 4 25.0772C4 11.2307 15.2307 0 29.0772 0Z" fill="#F48B20"/>
<path fill-rule="evenodd" clip-rule="evenodd" d="M29.0772 0C42.9521 0 54.1828 11.2307 54.1828 25.0772C54.1828 38.9521 42.9521 50.1828 29.0772 50.1828V0Z" fill="#F37021"/>
<path fill-rule="evenodd" clip-rule="evenodd" d="M12.7003 30.9058C13.4395 31.1617 13.6385 32.697 15.0317 32.5833C15.7141 32.5264 15.6003 32.3558 15.316 31.7587C14.5199 30.0244 12.4728 25.3331 14.2356 22.1202C16.4533 18.1397 18.3014 16.4622 18.5004 15.4671C18.671 14.5288 19.8367 16.8034 18.5004 19.4476C17.6474 21.1251 18.1877 22.433 18.6994 23.1438C19.5524 24.3095 19.2397 23.6271 19.3249 22.6889C19.524 20.9545 20.4338 17.4858 24.6133 15.0975C30.3566 11.8278 25.58 6.6247 26.5467 6.16978C27.5134 5.71487 33.2851 8.10317 35.247 15.1828C37.1803 22.2624 35.0479 24.2811 36.1852 24.736C37.3509 25.1909 43.4639 21.0398 44.26 19.3623C44.459 18.9927 44.7149 19.1064 44.9139 19.6182C45.6531 21.2673 46.0227 26.6978 42.0138 30.2518C41.6158 30.593 41.2177 31.0764 42.0422 31.0195C43.3786 30.9626 45.5963 30.5646 47.1885 29.0861C48.0983 28.29 48.5248 26.8684 48.2973 29.2851C48.1267 30.9342 47.2169 33.6068 43.2933 35.7108C40.5638 37.1608 38.7441 40.2031 35.6734 42.1649C32.4606 44.212 27.7977 44.5248 24.1869 43.3875C19.6377 41.9943 20.775 38.4119 16.0553 36.2226C13.5532 35.0569 12.3875 32.0999 12.3591 31.1617C12.3875 30.9058 12.4444 30.8205 12.7003 30.9058Z" fill="#B92025"/>
<path fill-rule="evenodd" clip-rule="evenodd" d="M29.0772 6.93745C31.2096 8.10317 33.9675 10.6905 35.247 15.2112C37.1804 22.2908 35.048 24.3095 36.1852 24.7644C37.351 25.2193 43.4639 21.0682 44.26 19.3907C44.459 19.0211 44.7149 19.1349 44.9139 19.6466C45.6532 21.2957 46.0228 26.7262 42.0138 30.2803C41.6158 30.6215 41.2177 31.1048 42.0423 31.0479C43.3786 30.9911 45.5963 30.593 47.1885 29.1145C48.0983 28.3184 48.5248 26.8968 48.2973 29.3136C48.1268 30.9626 47.2169 33.6353 43.2933 35.7392C40.5638 37.1893 38.7441 40.2315 35.6735 42.1933C33.797 43.3875 31.4371 43.9846 29.0772 44.0983V6.93745Z" fill="#8F191C"/>
<path fill-rule="evenodd" clip-rule="evenodd" d="M28.2526 42.9326C28.2526 42.9326 23.9025 42.8188 22.7083 40.3737C21.5142 37.9285 23.8741 37.3314 22.9642 36.052C22.0544 34.7441 21.372 33.6068 22.3672 33.9764C23.3054 34.3176 26.0633 36.1941 26.2055 34.6019C26.3192 32.9813 24.7839 30.8489 26.1771 29.1714C27.5418 27.4939 28.9919 27.039 29.0487 25.0487C29.0772 23.0585 30.7547 26.186 29.7311 27.7782C28.7075 29.3989 27.7408 29.8253 29.3615 30.9911C30.9537 32.1852 31.3517 31.645 31.2664 33.0666C31.1811 34.4882 33.3136 35.2843 34.5361 33.3509C35.7303 31.3891 33.9391 28.8018 34.2802 28.8586C34.6214 28.9439 36.8107 32.3558 35.6166 34.5735C35.0479 35.6255 35.0764 36.052 35.2754 36.5069C37.5499 41.8521 32.6596 43.0747 28.2526 42.9326Z" fill="#F3B81A"/>
<path fill-rule="evenodd" clip-rule="evenodd" d="M29.0772 24.5938C29.3615 23.6271 30.6694 26.3282 29.7312 27.7498C29.5037 28.1194 29.2762 28.4037 29.0772 28.6881V24.5938ZM29.0772 30.792C29.1625 30.8489 29.2762 30.9058 29.3615 30.9911C30.9537 32.1852 31.3518 31.645 31.2665 33.0666C31.1812 34.4882 33.3136 35.2843 34.5362 33.3509C35.7303 31.3891 33.9391 28.8018 34.2803 28.8586C34.6215 28.9439 36.8108 32.3558 35.6166 34.5735C35.048 35.6255 35.0764 36.052 35.2754 36.5069C37.4363 41.511 33.2852 42.8757 29.1056 42.9326V30.792H29.0772Z" fill="#F48B20"/>
<path d="M21.0024 64.2567V58.6556H24.8408V59.5938H22.1113V60.9301H24.4427V61.8684H22.1113V64.2283H21.0024V64.2567ZM25.6937 64.2567V58.6556H26.831V64.2567H25.6937ZM27.9115 64.2567V58.6556H30.2713C30.8684 58.6556 31.3233 58.684 31.5792 58.8262C31.8635 58.9115 32.091 59.0821 32.2331 59.3664C32.4037 59.6223 32.4606 59.9066 32.4606 60.2193C32.4606 60.6743 32.3753 61.0154 32.1194 61.2713C31.8635 61.5557 31.4939 61.7262 31.0106 61.8115C31.238 61.9253 31.4655 62.0959 31.6076 62.2665C31.7782 62.4655 31.9773 62.7498 32.2331 63.1763L32.9155 64.2851H31.5508L30.7262 63.0626C30.4419 62.6076 30.2429 62.3802 30.1292 62.238C30.0439 62.1527 29.9301 62.039 29.8164 62.0106C29.7027 61.9537 29.5037 61.9537 29.2478 61.9537H29.0203V64.2851H27.9115V64.2567ZM29.0487 61.0154H29.8733C30.4135 61.0154 30.7547 60.987 30.8968 60.9301C31.0106 60.9017 31.1527 60.8448 31.2096 60.7027C31.2665 60.589 31.3233 60.4468 31.3233 60.3046C31.3233 60.1056 31.2665 59.9635 31.1527 59.8213C31.0674 59.736 30.8968 59.6223 30.6978 59.5938C30.6409 59.5938 30.3566 59.5938 29.8733 59.5938H29.0203V61.0154H29.0487ZM33.541 64.2567V58.6556H37.6921V59.5938H34.6783V60.8164H37.4647V61.7547H34.6783V63.2616H37.7774V64.1998H33.541V64.2567Z" fill="#414042"/>
</g>
<defs>
<filter id="filter0_d" x="0" y="0" width="58.1828" height="72.2851" filterUnits="userSpaceOnUse" color-interpolation-filters="sRGB">
<feFlood flood-opacity="0" result="BackgroundImageFix"/>
<feColorMatrix in="SourceAlpha" type="matrix" values="0 0 0 0 0 0 0 0 0 0 0 0 0 0 0 0 0 0 127 0"/>
<feOffset dy="4"/>
<feGaussianBlur stdDeviation="2"/>
<feColorMatrix type="matrix" values="0 0 0 0 0 0 0 0 0 0 0 0 0 0 0 0 0 0 0.25 0"/>
<feBlend mode="normal" in2="BackgroundImageFix" result="effect1_dropShadow"/>
<feBlend mode="normal" in="SourceGraphic" in2="effect1_dropShadow" result="shape"/>
</filter>
</defs>
</svg>
