<svg width="59" height="73" viewBox="0 0 59 73" fill="none" xmlns="http://www.w3.org/2000/svg">
<g filter="url(#filter0_d)">
<path fill-rule="evenodd" clip-rule="evenodd" d="M29.1056 0C42.9521 0 54.1828 11.2307 54.1828 25.1056C54.1828 38.9521 42.9521 50.1828 29.1056 50.1828C15.2591 50.1828 4 38.9521 4 25.1056C4 11.2307 15.2591 0 29.1056 0Z" fill="#1FAFDF"/>
<path fill-rule="evenodd" clip-rule="evenodd" d="M29.1055 0C42.952 0 54.1827 11.2307 54.1827 25.1056C54.1827 38.9521 42.952 50.1828 29.1055 50.1828V0Z" fill="#0A87B3"/>
<path fill-rule="evenodd" clip-rule="evenodd" d="M19.3533 24.2242C34.0527 13.221 42.1559 6.90903 44.5158 8.33064C46.8472 9.69538 36.896 19.5613 37.3793 21.182C37.8911 22.8026 45.5109 22.8595 45.5678 24.0536C45.6531 25.2478 38.7725 26.8684 38.2607 28.2331C37.7773 29.6263 45.5678 32.0146 45.5109 33.6921C45.4256 35.3696 36.2704 33.0666 35.7018 34.2607C35.1332 35.4549 37.2087 39.4354 35.8155 40.4021C34.3939 41.3404 28.7928 36.3647 27.6555 37.2461C26.5466 38.1275 26.2339 42.6198 20.2063 42.0512C16.1689 41.6815 13.1267 38.6677 12.7002 34.9431C12.16 29.9106 15.7708 26.8968 19.3533 24.2242Z" fill="white"/>
<path fill-rule="evenodd" clip-rule="evenodd" d="M29.1055 16.9171C37.6921 10.5483 42.6961 7.2502 44.5158 8.33062C46.8472 9.69536 36.896 19.5613 37.3793 21.182C37.8911 22.8026 45.5109 22.8595 45.5678 24.0536C45.6531 25.2478 38.7725 26.8684 38.2607 28.2332C37.7774 29.6263 45.5678 32.0146 45.5109 33.6921C45.4256 35.3696 36.2704 33.0666 35.7018 34.2608C35.1332 35.4549 37.2087 39.4355 35.8155 40.4021C34.7067 41.1414 31.2095 38.3835 29.1055 37.4168V16.9171Z" fill="#E5E6E7"/>
<path d="M15.9415 64.2567V58.6556H19.7798V59.5939H17.0503V60.9302H19.3818V61.8684H17.0503V64.2283H15.9415V64.2567ZM20.6896 64.2567V58.684H21.8269V63.29H24.6417V64.2283H20.6896V64.2567ZM26.2055 64.2567V61.8969L24.1584 58.684H25.4947L26.831 60.9017L28.082 58.684H29.3899L27.3428 61.9537V64.2852H26.2055V64.2567ZM29.9017 64.2567V58.6556H31.039V64.2567H29.9017ZM32.1194 64.2567V58.6556H33.2282L35.5028 62.3802V58.6556H36.5548V64.2567H35.4459L33.1714 60.589V64.2567H32.1194ZM40.3363 62.2096V61.2713H42.7814V63.489C42.554 63.7449 42.2128 63.944 41.7579 64.0861C41.3029 64.2852 40.848 64.3705 40.3931 64.3705C39.796 64.3705 39.2843 64.2567 38.8578 64.0008C38.4597 63.745 38.0901 63.4038 37.8911 62.9488C37.6636 62.4655 37.5783 62.0106 37.5783 61.4704C37.5783 60.8733 37.6921 60.3615 37.9195 59.935C38.1754 59.4517 38.5166 59.1105 39 58.883C39.3696 58.684 39.8245 58.5987 40.3647 58.5987C41.0471 58.5987 41.5873 58.7693 41.9853 59.0536C42.3549 59.338 42.6108 59.736 42.753 60.2478L41.6441 60.4752C41.5588 60.1909 41.3882 59.9635 41.1608 59.8213C40.9618 59.6507 40.6774 59.5654 40.3647 59.5654C39.8529 59.5654 39.4833 59.736 39.1705 60.0488C38.8862 60.3615 38.7725 60.8449 38.7725 61.4419C38.7725 62.0959 38.8862 62.6077 39.2274 62.9488C39.5117 63.2616 39.8813 63.4322 40.3647 63.4322C40.6206 63.4322 40.848 63.4038 41.1039 63.3185C41.3314 63.2332 41.5588 63.091 41.701 62.9773V62.2949H40.3363V62.2096Z" fill="#414042"/>
</g>
<defs>
<filter id="filter0_d" x="0" y="0" width="58.1828" height="72.3705" filterUnits="userSpaceOnUse" color-interpolation-filters="sRGB">
<feFlood flood-opacity="0" result="BackgroundImageFix"/>
<feColorMatrix in="SourceAlpha" type="matrix" values="0 0 0 0 0 0 0 0 0 0 0 0 0 0 0 0 0 0 127 0"/>
<feOffset dy="4"/>
<feGaussianBlur stdDeviation="2"/>
<feColorMatrix type="matrix" values="0 0 0 0 0 0 0 0 0 0 0 0 0 0 0 0 0 0 0.25 0"/>
<feBlend mode="normal" in2="BackgroundImageFix" result="effect1_dropShadow"/>
<feBlend mode="normal" in="SourceGraphic" in2="effect1_dropShadow" result="shape"/>
</filter>
</defs>
</svg>
