<svg width="59" height="73" viewBox="0 0 59 73" fill="none" xmlns="http://www.w3.org/2000/svg">
<g filter="url(#filter0_d)">
<path fill-rule="evenodd" clip-rule="evenodd" d="M29.1056 0C42.9521 0 54.1828 11.2307 54.1828 25.0772C54.1828 38.9237 42.9521 50.1544 29.1056 50.1544C15.2591 50.1544 4 38.9237 4 25.0772C4 11.2307 15.2591 0 29.1056 0Z" fill="#8B7E71"/>
<path fill-rule="evenodd" clip-rule="evenodd" d="M29.1055 3.8147e-06C42.952 3.8147e-06 54.1827 11.2307 54.1827 25.0772C54.1827 38.9237 42.952 50.1544 29.1055 50.1544V3.8147e-06Z" fill="#745C44"/>
<path fill-rule="evenodd" clip-rule="evenodd" d="M6.58731 26.0154C6.24613 30.3656 8.89031 21.6937 15.0601 19.4192C26.4614 15.2112 28.4232 26.8115 32.3753 31.1617C42.2412 41.8806 53.3582 28.6596 48.2404 16.8319C39.9951 -2.50202 8.4354 3.75305 6.58731 26.0154ZM47.9845 32.1284C47.8139 32.9813 48.0414 33.2656 48.4963 33.3509C49.3208 33.5215 49.7473 33.6068 50.2591 34.2608C50.7993 34.9431 51.4532 34.5451 51.4248 33.1235C51.368 30.9058 48.5247 29.6832 47.9845 32.1284ZM29.8164 37.2177C29.7879 38.2981 30.8968 37.9854 31.5223 37.9001C31.8066 37.9001 32.0625 37.9001 32.2615 38.1275C32.8302 38.7815 33.3988 37.9285 34.3371 38.355C36.5264 39.2648 35.7018 34.5167 32.8586 34.4029C31.5507 34.3461 29.8732 35.1137 29.8164 37.2177ZM40.2794 31.1617C38.6588 33.0666 35.5028 31.9293 33.9106 30.5362C32.3184 29.1714 32.1194 26.84 33.4273 25.2762C35.1048 23.3712 41.9285 29.3136 40.2794 31.1617ZM44.1746 30.8205C45.3403 30.7067 46.7904 29.1146 47.16 27.6361C47.558 25.9586 46.6767 24.3379 45.1982 24.0252C42.8099 23.5703 41.8432 31.0479 44.1746 30.8205Z" fill="white"/>
<path fill-rule="evenodd" clip-rule="evenodd" d="M29.1055 25.987C30.2144 27.9488 31.238 29.8538 32.4037 31.1332C42.2696 41.8521 53.3866 28.6312 48.2688 16.8034C44.7148 8.55807 36.9812 4.97562 29.1055 5.28838V25.987ZM47.9845 32.1283C47.8139 32.9813 48.0414 33.2656 48.4963 33.3509C49.3208 33.5215 49.7473 33.6068 50.2591 34.2607C50.7993 34.9431 51.4532 34.5451 51.4248 33.1235C51.3679 30.9058 48.5247 29.6832 47.9845 32.1283ZM29.8163 37.2177C29.7879 38.2981 30.8968 37.9854 31.5223 37.9001C31.8066 37.9001 32.0625 37.9001 32.2615 38.1275C32.8302 38.7815 33.3988 37.9285 34.3371 38.355C36.5263 39.2648 35.7018 34.5166 32.8586 34.4029C31.5507 34.346 29.8732 35.1137 29.8163 37.2177ZM40.2794 31.1616C38.6588 33.0666 35.5028 31.9293 33.9106 30.5361C32.3184 29.1714 32.1193 26.8399 33.4272 25.2762C35.1047 23.3712 41.9285 29.3136 40.2794 31.1616ZM44.1746 30.8205C45.3403 30.7067 46.7903 29.1145 47.16 27.6361C47.558 25.9586 46.6766 24.3379 45.1982 24.0252C42.8099 23.5703 41.8432 31.0479 44.1746 30.8205Z" fill="#E5E6E7"/>
<path d="M18.5857 62.1527V61.2144H21.0308V63.4606C20.775 63.6881 20.4622 63.8586 19.9788 64.0577C19.5239 64.2283 19.0975 64.3136 18.6141 64.3136C18.0455 64.3136 17.5337 64.1998 17.1072 63.9724C16.6523 63.7165 16.3395 63.3753 16.1405 62.892C15.913 62.437 15.8278 61.9537 15.8278 61.4135C15.8278 60.8448 15.913 60.3046 16.1689 59.8781C16.4248 59.4232 16.766 59.082 17.2494 58.8261C17.5906 58.6271 18.0739 58.5418 18.5857 58.5418C19.268 58.5418 19.8367 58.7124 20.2347 58.9967C20.6044 59.2811 20.8602 59.6791 21.0024 60.1909L19.8651 60.4183C19.8082 60.134 19.6377 59.9066 19.4102 59.7644C19.1827 59.5938 18.9269 59.5369 18.5857 59.5369C18.1023 59.5369 17.7043 59.7075 17.42 60.0203C17.1356 60.3331 16.965 60.788 16.965 61.4135C16.965 62.0674 17.1356 62.5508 17.42 62.892C17.7327 63.2047 18.1023 63.4037 18.5857 63.4037C18.8416 63.4037 19.069 63.3469 19.3249 63.2331C19.5524 63.1478 19.723 63.0341 19.922 62.9204V62.1811H18.5857V62.1527ZM22.0544 64.1998V58.5987H23.1917V60.8164H25.4094V58.5987H26.5182V64.1998H25.4094V61.7547H23.1917V64.1998H22.0544ZM27.4565 61.4703C27.4565 60.9017 27.5418 60.4183 27.7124 60.0487C27.8261 59.7644 28.0252 59.4801 28.2242 59.2526C28.4516 59.0252 28.7075 58.883 28.9634 58.7408C29.3046 58.6271 29.7311 58.5134 30.1576 58.5134C30.9821 58.5134 31.636 58.7693 32.1478 59.3095C32.6596 59.8213 32.8871 60.5036 32.8871 61.4419C32.8871 62.3517 32.6596 63.0625 32.1478 63.5743C31.6645 64.0861 31.0105 64.342 30.186 64.342C29.3615 64.342 28.7075 64.0861 28.1958 63.5743C27.7124 63.0341 27.4565 62.3517 27.4565 61.4703ZM28.6507 61.4419C28.6507 62.0674 28.7644 62.5508 29.1056 62.8635C29.3899 63.2047 29.7595 63.3753 30.2144 63.3753C30.6693 63.3753 31.039 63.2047 31.3233 62.8635C31.6076 62.5508 31.7213 62.0674 31.7213 61.4135C31.7213 60.788 31.6076 60.3046 31.3233 59.9919C31.039 59.6791 30.6978 59.5085 30.2144 59.5085C29.7311 59.5085 29.3615 59.6791 29.0771 59.9919C28.7644 60.3046 28.6507 60.7595 28.6507 61.4419ZM33.4841 62.4086L34.593 62.2949C34.6499 62.6645 34.792 62.9488 34.991 63.1194C35.1901 63.29 35.4744 63.3753 35.8156 63.3753C36.1568 63.3753 36.4411 63.3184 36.6117 63.1478C36.8107 62.9773 36.896 62.8067 36.896 62.6076C36.896 62.4939 36.8676 62.3517 36.8107 62.2664C36.7254 62.1811 36.5832 62.0959 36.4126 62.0106C36.2989 61.9821 35.9577 61.8968 35.5028 61.7831C34.9057 61.6125 34.4793 61.4419 34.2518 61.2144C33.9106 60.9301 33.74 60.5605 33.74 60.1056C33.74 59.8213 33.7969 59.5369 33.9675 59.2811C34.1381 59.0536 34.3655 58.883 34.6498 58.7408C34.9626 58.5703 35.3322 58.5134 35.7587 58.5134C36.4411 58.5134 36.9813 58.684 37.3509 58.9967C37.6921 59.3095 37.8911 59.736 37.9195 60.2193L36.7822 60.2762C36.7538 59.9634 36.6117 59.7644 36.4695 59.6507C36.2989 59.5369 36.0999 59.4517 35.7871 59.4517C35.4459 59.4517 35.1901 59.5085 34.991 59.6507C34.9057 59.736 34.8204 59.8781 34.8204 59.9919C34.8204 60.1056 34.8489 60.2478 34.991 60.3331C35.1616 60.4468 35.4744 60.5889 36.043 60.7027C36.5832 60.8164 36.9813 60.9586 37.2372 61.1007C37.5215 61.2144 37.7205 61.4135 37.8627 61.6694C38.0333 61.8968 38.0901 62.2096 38.0901 62.5508C38.0901 62.8635 38.0048 63.1478 37.8342 63.4322C37.6352 63.7165 37.3793 63.9439 37.0666 64.0577C36.7254 64.1714 36.3273 64.2567 35.844 64.2567C35.1616 64.2567 34.6214 64.0861 34.2234 63.7733C33.7969 63.489 33.5694 63.0057 33.4841 62.4086ZM40.251 64.1998V59.5654H38.5735V58.6271H43.0373V59.5654H41.3598V64.1998H40.251Z" fill="#414042"/>
</g>
<defs>
<filter id="filter0_d" x="0" y="0" width="58.1828" height="72.342" filterUnits="userSpaceOnUse" color-interpolation-filters="sRGB">
<feFlood flood-opacity="0" result="BackgroundImageFix"/>
<feColorMatrix in="SourceAlpha" type="matrix" values="0 0 0 0 0 0 0 0 0 0 0 0 0 0 0 0 0 0 127 0"/>
<feOffset dy="4"/>
<feGaussianBlur stdDeviation="2"/>
<feColorMatrix type="matrix" values="0 0 0 0 0 0 0 0 0 0 0 0 0 0 0 0 0 0 0.25 0"/>
<feBlend mode="normal" in2="BackgroundImageFix" result="effect1_dropShadow"/>
<feBlend mode="normal" in="SourceGraphic" in2="effect1_dropShadow" result="shape"/>
</filter>
</defs>
</svg>
