<svg width="59" height="73" viewBox="0 0 59 73" fill="none" xmlns="http://www.w3.org/2000/svg">
<g filter="url(#filter0_d)">
<path fill-rule="evenodd" clip-rule="evenodd" d="M29.1056 0C42.9521 0 54.1828 11.2307 54.1828 25.0772C54.1828 38.9521 42.9521 50.1828 29.1056 50.1828C15.2591 50.1828 4 38.9521 4 25.0772C4 11.2307 15.2591 0 29.1056 0Z" fill="#78421B"/>
<path fill-rule="evenodd" clip-rule="evenodd" d="M29.1055 0C42.952 0 54.1827 11.2307 54.1827 25.0772C54.1827 38.9521 42.952 50.1828 29.1055 50.1828V0Z" fill="#5B3513"/>
<path fill-rule="evenodd" clip-rule="evenodd" d="M16.5386 27.0106C21.0309 26.9537 24.6986 31.2754 22.9927 35.5118C21.6279 38.8952 17.9602 39.4923 15.0317 37.5873C11.961 35.6539 9.06092 31.844 12.4728 28.6028C13.5532 27.6076 15.0033 27.0674 16.5386 27.0106ZM35.1901 6.5394C40.7628 6.5394 40.2794 15.6377 34.3371 15.2965C28.7929 14.9553 29.0772 7.36394 34.394 6.56784C34.6499 6.5394 34.9058 6.51097 35.1901 6.5394ZM19.6946 7.96101C27.2006 8.27377 26.3477 19.4192 19.3534 19.7604C15.6572 19.9594 12.5581 17.2299 13.1552 13.2778C13.6101 10.1787 16.567 7.84728 19.6946 7.96101ZM45.0561 18.5662C48.8944 18.5378 50.117 22.1487 49.065 25.3046C48.2973 27.5792 46.4777 30.394 44.6011 31.9009C42.4403 33.6353 39.8814 31.8725 39.1706 29.4557C37.948 25.4184 40.0804 18.5093 45.0561 18.5662ZM34.3371 32.6117C37.9764 32.5264 40.8197 36.3647 40.7628 39.9188C40.7059 43.1316 38.2892 46.2307 34.9342 46.2023C32.091 46.1739 30.2998 43.9846 30.4419 41.2267C30.4988 40.0325 30.8968 38.6678 31.0106 37.3883C31.2949 35.1706 31.3233 32.5264 34.3371 32.6117ZM30.1007 18.4525C35.446 18.4809 37.2372 25.4752 33.6547 29.1145C29.6174 33.2372 22.8505 29.0577 24.1868 23.2291C24.8408 20.528 27.2859 18.3956 30.1007 18.4525Z" fill="#B56428"/>
<path fill-rule="evenodd" clip-rule="evenodd" d="M29.1055 30.7352V18.5378C29.4183 18.5093 29.731 18.4809 30.0722 18.4809C35.4175 18.5093 37.2087 25.5037 33.6263 29.143C32.3184 30.4793 30.6693 30.9342 29.1055 30.7352ZM35.19 6.5394C40.7627 6.5394 40.2794 15.6377 34.3371 15.2965C28.7928 14.9553 29.0771 7.36394 34.3939 6.56784C34.6498 6.5394 34.9057 6.51097 35.19 6.5394ZM45.056 18.5662C48.8943 18.5378 50.1169 22.1487 49.0649 25.3046C48.2972 27.5792 46.4776 30.394 44.6011 31.9009C42.4402 33.6353 39.8813 31.8725 39.1705 29.4557C37.9479 25.4184 40.0804 18.5093 45.056 18.5662ZM34.3371 32.6117C37.9764 32.5264 40.8196 36.3647 40.7627 39.9188C40.7059 43.1316 38.2891 46.2307 34.9341 46.2023C32.0909 46.1739 30.2997 43.9846 30.4418 41.2267C30.4987 40.0325 30.8968 38.6678 31.0105 37.3883C31.2948 35.1706 31.3232 32.5264 34.3371 32.6117Z" fill="#915022"/>
<path d="M15.117 62.2096V61.2713H17.5621V63.489C17.3347 63.7449 16.9935 63.9439 16.5386 64.0861C16.0837 64.2851 15.6288 64.3704 15.1738 64.3704C14.5768 64.3704 14.065 64.2567 13.6385 64.0008C13.2405 63.7449 12.8708 63.4037 12.6718 62.9488C12.4444 62.4655 12.3591 62.0106 12.3591 61.4703C12.3591 60.8733 12.4728 60.3615 12.7003 59.935C12.9561 59.4517 13.2973 59.1105 13.7807 58.883C14.1503 58.684 14.6052 58.5987 15.1454 58.5987C15.8278 58.5987 16.368 58.7124 16.7661 59.0536C17.1357 59.3379 17.3916 59.736 17.5337 60.2478L16.3964 60.4468C16.3396 60.1909 16.169 59.9634 15.9415 59.8213C15.7425 59.6507 15.4582 59.5654 15.1454 59.5654C14.6336 59.5654 14.264 59.736 13.9513 60.0487C13.6669 60.3615 13.5532 60.8448 13.5532 61.4419C13.5532 62.0959 13.6669 62.6076 14.0081 62.9204C14.2925 63.2616 14.6621 63.4322 15.1454 63.4322C15.4013 63.4322 15.6288 63.4037 15.8846 63.3184C16.1121 63.2331 16.3396 63.091 16.4817 62.9773V62.2949H15.117V62.2096ZM18.5857 64.2567V58.6556H20.9456C21.5427 58.6556 21.9976 58.684 22.2819 58.8262C22.5378 58.9115 22.7652 59.082 22.9074 59.3664C23.078 59.6223 23.1633 59.9066 23.1633 60.2193C23.1633 60.6742 23.0496 61.0154 22.7937 61.2713C22.5378 61.5556 22.1966 61.7262 21.6848 61.8115C21.9407 61.9253 22.1397 62.0959 22.2819 62.2664C22.4525 62.4655 22.6515 62.7498 22.9358 63.1763L23.5898 64.2851H22.2535L21.4289 63.0626C21.1446 62.6076 20.9171 62.3802 20.8318 62.238C20.7465 62.1527 20.6044 62.039 20.4907 62.0106C20.3769 61.9537 20.1779 61.9537 19.922 61.9537H19.6946V64.2851H18.5857V64.2567ZM19.723 61.0154H20.5475C21.0877 61.0154 21.4289 60.987 21.5711 60.9301C21.7417 60.9017 21.827 60.8448 21.8838 60.7027C21.9691 60.589 21.9976 60.4468 21.9976 60.3046C21.9976 60.1056 21.9407 59.9634 21.827 59.8213C21.7417 59.736 21.5995 59.6223 21.4289 59.5938C21.3436 59.5938 21.0593 59.5938 20.6044 59.5938H19.723V61.0154ZM23.9878 61.4703C23.9878 60.9017 24.0731 60.4184 24.2437 60.0487C24.3574 59.7644 24.5565 59.5085 24.7839 59.2811C25.0114 59.0536 25.2388 58.883 25.5231 58.7693C25.8643 58.5987 26.2624 58.5418 26.7173 58.5418C27.5418 58.5418 28.1958 58.7977 28.6791 59.3095C29.1909 59.8213 29.4468 60.5321 29.4468 61.4419C29.4468 62.3517 29.1909 63.0626 28.6791 63.5743C28.1958 64.1145 27.5418 64.3704 26.7173 64.3704C25.8928 64.3704 25.2388 64.1145 24.727 63.6028C24.2437 63.091 23.9878 62.3517 23.9878 61.4703ZM25.1535 61.4419C25.1535 62.0674 25.3241 62.5508 25.6084 62.892C25.8928 63.2047 26.2624 63.3753 26.7173 63.3753C27.1722 63.3753 27.5418 63.2047 27.8261 62.892C28.1105 62.5508 28.2811 62.0674 28.2811 61.4419C28.2811 60.788 28.1105 60.3046 27.8261 59.9919C27.5703 59.6791 27.2006 59.5085 26.7173 59.5085C26.234 59.5085 25.8928 59.6791 25.58 59.9919C25.3241 60.3331 25.1535 60.8164 25.1535 61.4419ZM30.2713 58.6556H31.4086V61.6978C31.4086 62.1812 31.4086 62.4939 31.437 62.6076C31.4939 62.8351 31.6076 63.0057 31.7782 63.1763C31.9772 63.29 32.2331 63.3753 32.5459 63.3753C32.8586 63.3753 33.1145 63.3184 33.2851 63.1763C33.4557 63.0626 33.541 62.892 33.5694 62.6929C33.5979 62.4939 33.6263 62.1812 33.6263 61.7547V58.6556H34.7352V61.5841C34.7352 62.238 34.7067 62.7214 34.6499 63.0057C34.593 63.2616 34.4793 63.5175 34.3371 63.6881C34.1665 63.8871 33.9675 64.0292 33.6832 64.143C33.3989 64.2567 33.0577 64.342 32.6028 64.342C32.0625 64.342 31.6645 64.2851 31.3802 64.143C31.1243 64.0292 30.8968 63.8587 30.7547 63.6596C30.5841 63.4322 30.4703 63.2616 30.4419 63.0341C30.3566 62.7214 30.3282 62.238 30.3282 61.6125V58.6556H30.2713ZM35.9577 64.2567V58.6556H37.0666L39.3412 62.3802V58.6556H40.3932V64.2567H39.2843L37.0097 60.589V64.2567H35.9577ZM41.5589 58.6556H43.606C44.0893 58.6556 44.4305 58.684 44.6864 58.7409C44.9992 58.8262 45.2835 59.0252 45.5394 59.2811C45.7668 59.5085 45.9374 59.8213 46.0512 60.1625C46.1649 60.5037 46.2502 60.9586 46.2502 61.4988C46.2502 61.9537 46.1933 62.3517 46.0796 62.6929C45.909 63.0626 45.7384 63.4322 45.4825 63.6596C45.2835 63.8587 44.9992 64.0008 44.6864 64.1145C44.4305 64.1714 44.0893 64.2283 43.6628 64.2283H41.5304V58.6556H41.5589ZM42.7246 59.5938V63.29H43.5491C43.8619 63.29 44.1178 63.2616 44.2315 63.2331C44.4305 63.2047 44.5727 63.1194 44.6864 63.0057C44.8001 62.892 44.9139 62.7214 44.9992 62.4655C45.056 62.2096 45.0845 61.8684 45.0845 61.4135C45.0845 61.0154 45.056 60.6458 44.9992 60.4468C44.9139 60.2193 44.8001 60.0487 44.6864 59.9066C44.5158 59.7928 44.3737 59.6791 44.1462 59.6223C43.9756 59.5938 43.6628 59.5938 43.2364 59.5938H42.7246Z" fill="#414042"/>
</g>
<defs>
<filter id="filter0_d" x="0" y="0" width="58.1828" height="72.3704" filterUnits="userSpaceOnUse" color-interpolation-filters="sRGB">
<feFlood flood-opacity="0" result="BackgroundImageFix"/>
<feColorMatrix in="SourceAlpha" type="matrix" values="0 0 0 0 0 0 0 0 0 0 0 0 0 0 0 0 0 0 127 0"/>
<feOffset dy="4"/>
<feGaussianBlur stdDeviation="2"/>
<feColorMatrix type="matrix" values="0 0 0 0 0 0 0 0 0 0 0 0 0 0 0 0 0 0 0.25 0"/>
<feBlend mode="normal" in2="BackgroundImageFix" result="effect1_dropShadow"/>
<feBlend mode="normal" in="SourceGraphic" in2="effect1_dropShadow" result="shape"/>
</filter>
</defs>
</svg>
