<svg width="26" height="30" viewBox="0 0 26 30" fill="none" xmlns="http://www.w3.org/2000/svg">
<g clip-path="url(#clip0)">
<path d="M24.4357 18.232C24.4357 24.5304 19.3212 29.6448 13.0229 29.6448C6.72452 29.6448 1.61008 24.5304 1.61008 18.232C1.63376 11.9337 6.72452 0.355164 13.0229 0.355164C19.3212 0.355164 24.4357 11.9337 24.4357 18.232Z" fill="#EEDCF4"/>
<path d="M13.0229 0.355164V29.6448C19.3212 29.6448 24.4357 24.5304 24.4357 18.232C24.4357 11.9337 19.3212 0.355164 13.0229 0.355164Z" fill="#A8A3E5"/>
<path d="M13.0229 30C6.5351 30 1.25491 24.7198 1.25491 18.232C1.25491 14.9408 2.58088 10.4183 4.64086 6.74822C7.10337 2.39148 10.0631 0 13.0229 0C15.9826 0 18.966 2.39148 21.4049 6.74822C23.4649 10.4183 24.7908 14.9408 24.7908 18.232C24.7908 24.7198 19.5106 30 13.0229 30ZM13.0229 0.710339C11.4601 0.710339 8.38198 1.53907 5.25649 7.10339C3.26754 10.6788 1.98893 15.0355 1.98893 18.232C1.98893 24.3173 6.93762 29.2897 13.0465 29.2897C19.1318 29.2897 24.1042 24.341 24.1042 18.232C24.1042 15.0355 22.8019 10.6788 20.8129 7.10339C17.6637 1.53907 14.5856 0.710339 13.0229 0.710339Z" fill="#33363A"/>
<path d="M15.6985 8.78453C16.1562 8.78453 16.5272 8.4135 16.5272 7.9558C16.5272 7.49811 16.1562 7.12708 15.6985 7.12708C15.2408 7.12708 14.8697 7.49811 14.8697 7.9558C14.8697 8.4135 15.2408 8.78453 15.6985 8.78453Z" fill="#EEDCF4"/>
<path d="M18.3741 8.31097C18.701 8.31097 18.966 8.04595 18.966 7.71902C18.966 7.3921 18.701 7.12708 18.3741 7.12708C18.0471 7.12708 17.7821 7.3921 17.7821 7.71902C17.7821 8.04595 18.0471 8.31097 18.3741 8.31097Z" fill="#EEDCF4"/>
<path d="M18.6819 10.3473C18.8519 10.3473 18.9897 10.2094 18.9897 10.0394C18.9897 9.86944 18.8519 9.73163 18.6819 9.73163C18.5119 9.73163 18.3741 9.86944 18.3741 10.0394C18.3741 10.2094 18.5119 10.3473 18.6819 10.3473Z" fill="#EEDCF4"/>
<path d="M16.5035 5.61169C16.9481 5.61169 17.3086 5.25126 17.3086 4.80664C17.3086 4.36202 16.9481 4.00159 16.5035 4.00159C16.0589 4.00159 15.6985 4.36202 15.6985 4.80664C15.6985 5.25126 16.0589 5.61169 16.5035 5.61169Z" fill="#EEDCF4"/>
<path d="M14.6093 3.03077C14.8054 3.03077 14.9644 2.87176 14.9644 2.6756C14.9644 2.47945 14.8054 2.32043 14.6093 2.32043C14.4131 2.32043 14.2541 2.47945 14.2541 2.6756C14.2541 2.87176 14.4131 3.03077 14.6093 3.03077Z" fill="#EEDCF4"/>
<path d="M16.101 13.4254C16.3233 13.4254 16.5035 13.2452 16.5035 13.0229C16.5035 12.8006 16.3233 12.6204 16.101 12.6204C15.8787 12.6204 15.6985 12.8006 15.6985 13.0229C15.6985 13.2452 15.8787 13.4254 16.101 13.4254Z" fill="#EEDCF4"/>
<path d="M16.101 17.9479C16.3233 17.9479 16.5035 17.7677 16.5035 17.5454C16.5035 17.323 16.3233 17.1428 16.101 17.1428C15.8787 17.1428 15.6985 17.323 15.6985 17.5454C15.6985 17.7677 15.8787 17.9479 16.101 17.9479Z" fill="#EEDCF4"/>
<path d="M19.4159 15.8643C19.6513 15.8643 19.8421 15.6734 19.8421 15.438C19.8421 15.2027 19.6513 15.0118 19.4159 15.0118C19.1805 15.0118 18.9897 15.2027 18.9897 15.438C18.9897 15.6734 19.1805 15.8643 19.4159 15.8643Z" fill="#EEDCF4"/>
<path d="M21.4522 14.3015C21.6876 14.3015 21.8784 14.1107 21.8784 13.8753C21.8784 13.6399 21.6876 13.4491 21.4522 13.4491C21.2168 13.4491 21.026 13.6399 21.026 13.8753C21.026 14.1107 21.2168 14.3015 21.4522 14.3015Z" fill="#EEDCF4"/>
<path d="M19.1791 20.1973C19.2968 20.1973 19.3922 20.1019 19.3922 19.9842C19.3922 19.8665 19.2968 19.7711 19.1791 19.7711C19.0614 19.7711 18.966 19.8665 18.966 19.9842C18.966 20.1019 19.0614 20.1973 19.1791 20.1973Z" fill="#EEDCF4"/>
<path d="M21.7837 18.6582C22.2022 18.6582 22.5414 18.319 22.5414 17.9005C22.5414 17.4821 22.2022 17.1428 21.7837 17.1428C21.3652 17.1428 21.026 17.4821 21.026 17.9005C21.026 18.319 21.3652 18.6582 21.7837 18.6582Z" fill="#EEDCF4"/>
<path d="M15.4617 24.1042C15.7363 24.1042 15.9589 23.8815 15.9589 23.6069C15.9589 23.3323 15.7363 23.1097 15.4617 23.1097C15.1871 23.1097 14.9644 23.3323 14.9644 23.6069C14.9644 23.8815 15.1871 24.1042 15.4617 24.1042Z" fill="#EEDCF4"/>
<path d="M16.03 27.2534C16.3569 27.2534 16.6219 26.9883 16.6219 26.6614C16.6219 26.3345 16.3569 26.0695 16.03 26.0695C15.703 26.0695 15.438 26.3345 15.438 26.6614C15.438 26.9883 15.703 27.2534 16.03 27.2534Z" fill="#EEDCF4"/>
<path d="M18.0899 24.3646C18.2599 24.3646 18.3977 24.2268 18.3977 24.0568C18.3977 23.8868 18.2599 23.749 18.0899 23.749C17.9199 23.749 17.7821 23.8868 17.7821 24.0568C17.7821 24.2268 17.9199 24.3646 18.0899 24.3646Z" fill="#EEDCF4"/>
<path d="M20.5998 22.6835C20.8352 22.6835 21.026 22.4927 21.026 22.2573C21.026 22.0219 20.8352 21.8311 20.5998 21.8311C20.3644 21.8311 20.1736 22.0219 20.1736 22.2573C20.1736 22.4927 20.3644 22.6835 20.5998 22.6835Z" fill="#EEDCF4"/>
<path d="M10.3709 8.78453C10.8286 8.78453 11.1997 8.4135 11.1997 7.9558C11.1997 7.49811 10.8286 7.12708 10.3709 7.12708C9.91324 7.12708 9.5422 7.49811 9.5422 7.9558C9.5422 8.4135 9.91324 8.78453 10.3709 8.78453Z" fill="#A8A3E5"/>
<path d="M7.69534 8.31097C8.02226 8.31097 8.28729 8.04595 8.28729 7.71902C8.28729 7.3921 8.02226 7.12708 7.69534 7.12708C7.36841 7.12708 7.10339 7.3921 7.10339 7.71902C7.10339 8.04595 7.36841 8.31097 7.69534 8.31097Z" fill="#A8A3E5"/>
<path d="M7.38751 10.3473C7.55751 10.3473 7.69533 10.2094 7.69533 10.0394C7.69533 9.86944 7.55751 9.73163 7.38751 9.73163C7.21751 9.73163 7.0797 9.86944 7.0797 10.0394C7.0797 10.2094 7.21751 10.3473 7.38751 10.3473Z" fill="#A8A3E5"/>
<path d="M9.56591 5.61169C10.0105 5.61169 10.371 5.25126 10.371 4.80664C10.371 4.36202 10.0105 4.00159 9.56591 4.00159C9.12129 4.00159 8.76086 4.36202 8.76086 4.80664C8.76086 5.25126 9.12129 5.61169 9.56591 5.61169Z" fill="#A8A3E5"/>
<path d="M11.4601 3.03077C11.6563 3.03077 11.8153 2.87176 11.8153 2.6756C11.8153 2.47945 11.6563 2.32043 11.4601 2.32043C11.264 2.32043 11.105 2.47945 11.105 2.6756C11.105 2.87176 11.264 3.03077 11.4601 3.03077Z" fill="#A8A3E5"/>
<path d="M9.96841 13.4254C10.1907 13.4254 10.3709 13.2452 10.3709 13.0229C10.3709 12.8006 10.1907 12.6204 9.96841 12.6204C9.7461 12.6204 9.56589 12.8006 9.56589 13.0229C9.56589 13.2452 9.7461 13.4254 9.96841 13.4254Z" fill="#A8A3E5"/>
<path d="M9.96841 17.9479C10.1907 17.9479 10.3709 17.7677 10.3709 17.5454C10.3709 17.323 10.1907 17.1428 9.96841 17.1428C9.7461 17.1428 9.56589 17.323 9.56589 17.5454C9.56589 17.7677 9.7461 17.9479 9.96841 17.9479Z" fill="#A8A3E5"/>
<path d="M6.65349 15.8643C6.88888 15.8643 7.07969 15.6734 7.07969 15.438C7.07969 15.2027 6.88888 15.0118 6.65349 15.0118C6.41811 15.0118 6.22729 15.2027 6.22729 15.438C6.22729 15.6734 6.41811 15.8643 6.65349 15.8643Z" fill="#A8A3E5"/>
<path d="M4.61717 14.3015C4.85256 14.3015 5.04338 14.1107 5.04338 13.8753C5.04338 13.6399 4.85256 13.4491 4.61717 13.4491C4.38179 13.4491 4.19097 13.6399 4.19097 13.8753C4.19097 14.1107 4.38179 14.3015 4.61717 14.3015Z" fill="#A8A3E5"/>
<path d="M6.86662 20.1973C6.98431 20.1973 7.07972 20.1019 7.07972 19.9842C7.07972 19.8665 6.98431 19.7711 6.86662 19.7711C6.74893 19.7711 6.65352 19.8665 6.65352 19.9842C6.65352 20.1019 6.74893 20.1973 6.86662 20.1973Z" fill="#A8A3E5"/>
<path d="M4.2857 18.6582C4.70417 18.6582 5.0434 18.319 5.0434 17.9005C5.0434 17.4821 4.70417 17.1428 4.2857 17.1428C3.86724 17.1428 3.52801 17.4821 3.52801 17.9005C3.52801 18.319 3.86724 18.6582 4.2857 18.6582Z" fill="#A8A3E5"/>
<path d="M10.6077 24.1042C10.8823 24.1042 11.1049 23.8815 11.1049 23.6069C11.1049 23.3323 10.8823 23.1097 10.6077 23.1097C10.3331 23.1097 10.1105 23.3323 10.1105 23.6069C10.1105 23.8815 10.3331 24.1042 10.6077 24.1042Z" fill="#A8A3E5"/>
<path d="M10.0395 27.2534C10.3664 27.2534 10.6314 26.9883 10.6314 26.6614C10.6314 26.3345 10.3664 26.0695 10.0395 26.0695C9.71253 26.0695 9.44751 26.3345 9.44751 26.6614C9.44751 26.9883 9.71253 27.2534 10.0395 27.2534Z" fill="#A8A3E5"/>
<path d="M7.97947 24.3646C8.14947 24.3646 8.28728 24.2268 8.28728 24.0568C8.28728 23.8868 8.14947 23.749 7.97947 23.749C7.80947 23.749 7.67166 23.8868 7.67166 24.0568C7.67166 24.2268 7.80947 24.3646 7.97947 24.3646Z" fill="#A8A3E5"/>
<path d="M5.46959 22.6835C5.70497 22.6835 5.89579 22.4927 5.89579 22.2573C5.89579 22.0219 5.70497 21.8311 5.46959 21.8311C5.2342 21.8311 5.04338 22.0219 5.04338 22.2573C5.04338 22.4927 5.2342 22.6835 5.46959 22.6835Z" fill="#A8A3E5"/>
<path d="M1.3733 4.68824C1.18388 4.68824 1.01814 4.52249 1.01814 4.33307V2.32044C1.01814 2.13102 1.18388 1.96527 1.3733 1.96527C1.56273 1.96527 1.72847 2.13102 1.72847 2.32044V4.33307C1.72847 4.52249 1.56273 4.68824 1.3733 4.68824Z" fill="#33363A"/>
<path d="M2.3678 3.67006H0.35517C0.165746 3.67006 0 3.50431 0 3.31489C0 3.12546 0.165746 2.95972 0.35517 2.95972H2.3678C2.55722 2.95972 2.72297 3.12546 2.72297 3.31489C2.72297 3.50431 2.55722 3.67006 2.3678 3.67006Z" fill="#33363A"/>
<path d="M25.5249 8.78452C25.4302 8.78452 25.3354 8.76085 25.2644 8.68981L23.8437 7.26913C23.7017 7.12707 23.7017 6.91396 23.8437 6.7719C23.9858 6.62983 24.1989 6.62983 24.341 6.7719L25.7617 8.19257C25.9037 8.33464 25.9037 8.54774 25.7617 8.68981C25.6906 8.76085 25.5959 8.78452 25.5249 8.78452Z" fill="#33363A"/>
<path d="M24.1042 8.78452C24.0095 8.78452 23.9148 8.76085 23.8437 8.68981C23.7017 8.54774 23.7017 8.33464 23.8437 8.19257L25.2644 6.7719C25.4065 6.62983 25.6196 6.62983 25.7617 6.7719C25.9037 6.91396 25.9037 7.12707 25.7617 7.26913L24.341 8.68981C24.2699 8.76085 24.1752 8.78452 24.1042 8.78452Z" fill="#33363A"/>
<path d="M2.08365 8.07418C1.98894 8.07418 1.89423 8.05051 1.82319 7.97947L1.11285 7.26913C0.970785 7.12707 0.970785 6.91396 1.11285 6.7719C1.25492 6.62983 1.46802 6.62983 1.61009 6.7719L2.32043 7.48224C2.4625 7.6243 2.4625 7.8374 2.32043 7.97947C2.2494 8.05051 2.15468 8.07418 2.08365 8.07418Z" fill="#33363A"/>
<path d="M1.34963 8.07418C1.25491 8.07418 1.1602 8.05051 1.08917 7.97947C0.947099 7.8374 0.947099 7.6243 1.08917 7.48224L1.79951 6.7719C1.94157 6.62983 2.15468 6.62983 2.29674 6.7719C2.43881 6.91396 2.43881 7.12707 2.29674 7.26913L1.58641 7.97947C1.53905 8.05051 1.44434 8.07418 1.34963 8.07418Z" fill="#33363A"/>
<path d="M23.015 2.67561H22.0205C21.8311 2.67561 21.6653 2.50986 21.6653 2.32044C21.6653 2.13102 21.8311 1.96527 22.0205 1.96527H23.0387C23.2281 1.96527 23.3938 2.13102 23.3938 2.32044C23.3938 2.50986 23.2281 2.67561 23.015 2.67561Z" fill="#33363A"/>
<path d="M22.5178 3.17283C22.3283 3.17283 22.1626 3.00708 22.1626 2.81766V1.79951C22.1626 1.61008 22.3283 1.44434 22.5178 1.44434C22.7072 1.44434 22.8729 1.61008 22.8729 1.79951V2.81766C22.8729 3.00708 22.7072 3.17283 22.5178 3.17283Z" fill="#33363A"/>
<path d="M22.8493 5.46963C22.7546 5.46963 22.6598 5.44595 22.5888 5.37492C22.4467 5.23285 22.4467 5.01975 22.5888 4.87768L22.9203 4.54619C23.0624 4.40412 23.2755 4.40412 23.4175 4.54619C23.5596 4.68826 23.5596 4.90136 23.4175 5.04342L23.0861 5.37492C23.0387 5.44595 22.944 5.46963 22.8493 5.46963Z" fill="#33363A"/>
<path d="M23.1808 5.46963C23.0861 5.46963 22.9913 5.44595 22.9203 5.37492L22.5888 5.04342C22.4467 4.90136 22.4467 4.68826 22.5888 4.54619C22.7309 4.40412 22.944 4.40412 23.0861 4.54619L23.4175 4.87768C23.5596 5.01975 23.5596 5.23285 23.4175 5.37492C23.3702 5.44595 23.2755 5.46963 23.1808 5.46963Z" fill="#33363A"/>
<path d="M4.8303 3.38594H4.35674C4.16731 3.38594 4.00157 3.22019 4.00157 3.03077C4.00157 2.84134 4.16731 2.6756 4.35674 2.6756H4.8303C5.01972 2.6756 5.18547 2.84134 5.18547 3.03077C5.18547 3.22019 5.0434 3.38594 4.8303 3.38594Z" fill="#33363A"/>
<path d="M4.6172 3.62274C4.42778 3.62274 4.26204 3.457 4.26204 3.26757V2.79401C4.26204 2.60459 4.42778 2.43884 4.6172 2.43884C4.80663 2.43884 4.97237 2.60459 4.97237 2.79401V3.26757C4.97237 3.48067 4.80663 3.62274 4.6172 3.62274Z" fill="#33363A"/>
</g>
<defs>
<clipPath id="clip0">
<rect width="25.88" height="30" fill="white"/>
</clipPath>
</defs>
</svg>
