<svg width="59" height="73" viewBox="0 0 59 73" fill="none" xmlns="http://www.w3.org/2000/svg">
<g filter="url(#filter0_d)">
<path fill-rule="evenodd" clip-rule="evenodd" d="M29.0772 0C42.9521 0 54.1828 11.2307 54.1828 25.0772C54.1828 38.9237 42.9521 50.1544 29.0772 50.1544C15.2307 50.1544 4 38.9237 4 25.0772C4 11.2307 15.2307 0 29.0772 0Z" fill="#65CDF6"/>
<path fill-rule="evenodd" clip-rule="evenodd" d="M29.0772 3.8147e-06C42.9521 3.8147e-06 54.1828 11.2307 54.1828 25.0772C54.1828 38.9237 42.9521 50.1544 29.0772 50.1544V3.8147e-06Z" fill="#1FAFDF"/>
<path fill-rule="evenodd" clip-rule="evenodd" d="M29.0203 6.90903C29.8448 6.90903 30.5272 7.59141 30.5272 8.44437V9.95127L31.039 9.4395C31.6361 8.84242 32.6312 8.84242 33.2283 9.4395C33.7969 10.0366 33.7969 11.0317 33.2283 11.6288L30.5272 14.273V22.4046L37.6637 18.2819L38.6304 14.6426C38.8578 13.818 39.7108 13.3063 40.5069 13.5337C41.3314 13.7612 41.8432 14.6141 41.6158 15.4387L41.4167 16.0926L42.753 15.325C43.4923 14.87 44.4305 15.1259 44.8286 15.8936C45.2835 16.6328 45.0276 17.5711 44.2884 17.9691L42.9521 18.7368L43.606 18.9358C44.4305 19.1633 44.9139 20.0163 44.6864 20.8124C44.459 21.6369 43.6344 22.1487 42.8099 21.9212L39.1706 20.9545L32.2047 24.9635L39.0284 28.9155L42.6678 27.9488C43.4923 27.7214 44.3452 28.2332 44.5727 29.0577C44.8002 29.8538 44.2884 30.7068 43.4923 30.9342L42.8099 31.1332L44.1462 31.9009C44.8855 32.299 45.1129 33.2656 44.7149 33.9765C44.3168 34.7441 43.3501 35 42.5825 34.5451L41.2746 33.7774L41.4452 34.4314C41.6726 35.2559 41.1893 36.1089 40.3647 36.3363C39.5402 36.5638 38.6872 36.052 38.4598 35.2275L37.5215 31.5882L30.4703 27.5508V35.7961L33.1714 38.4403C33.74 39.0374 33.74 40.0325 33.1714 40.6296C32.5743 41.2267 31.5792 41.2267 30.9821 40.6296L30.4703 40.1178V41.6247C30.4703 42.4777 29.788 43.16 28.9634 43.16C28.1105 43.16 27.4281 42.4777 27.4281 41.6247V40.1178L26.9163 40.6296C26.3477 41.2267 25.381 41.2267 24.7555 40.6296C24.1584 40.0325 24.1584 39.0374 24.7555 38.4403L27.3997 35.7961V27.7782L20.5475 31.7303L19.6377 35.3696C19.4102 36.1942 18.5573 36.6775 17.7327 36.4501C16.9082 36.2226 16.4249 35.3696 16.6523 34.5735L16.8229 33.8912L15.4866 34.6873C14.7474 35.0853 13.8091 34.8579 13.411 34.1186C13.013 33.3794 13.2404 32.4411 13.9797 31.9862L15.2876 31.2185L14.6336 31.0479C13.8375 30.8205 13.3257 29.9675 13.5532 29.143C13.7807 28.3185 14.6336 27.8351 15.4582 28.0341L19.0975 29.0008L26.1202 24.9635L18.9553 20.8977L15.316 21.8643C14.4915 22.0634 13.6385 21.58 13.4395 20.7555C13.212 19.931 13.6954 19.078 14.5199 18.8505L15.1738 18.68L13.8375 17.9123C13.0983 17.4574 12.8708 16.5191 13.2973 15.7799C13.6954 15.0406 14.6621 14.8132 15.3729 15.2112L16.7092 15.9789L16.5101 15.325C16.2827 14.5288 16.7945 13.6759 17.5906 13.4484C18.4151 13.221 19.2681 13.7043 19.4955 14.5289L20.4622 18.1682L27.4281 22.1771V14.273L24.7839 11.6288C24.1868 11.0317 24.1868 10.0366 24.7839 9.4395C25.381 8.84242 26.3761 8.84242 26.9448 9.4395L27.4565 9.95127V8.44437C27.4565 7.61984 28.1673 6.90903 29.0203 6.90903Z" fill="white"/>
<path fill-rule="evenodd" clip-rule="evenodd" d="M29.0771 6.90903C29.9017 6.93746 30.5272 7.64827 30.5272 8.44437V9.95127L31.0389 9.4395C31.636 8.84242 32.6312 8.84242 33.2282 9.4395C33.7969 10.0366 33.7969 11.0317 33.2282 11.6288L30.5272 14.273V22.4046L37.6636 18.2819L38.6303 14.6426C38.8578 13.818 39.7108 13.3063 40.5069 13.5337C41.3314 13.7612 41.8432 14.6141 41.6157 15.4387L41.4167 16.0926L42.753 15.325C43.4922 14.87 44.4305 15.1259 44.8286 15.8936C45.2835 16.6328 45.0276 17.5711 44.2883 17.9691L42.952 18.7368L43.606 18.9358C44.4305 19.1633 44.9139 20.0163 44.6864 20.8124C44.4589 21.6369 43.6344 22.1487 42.8099 21.9212L39.1705 20.9545L32.2047 24.9635L39.0284 28.9155L42.6677 27.9488C43.4922 27.7214 44.3452 28.2332 44.5727 29.0577C44.8001 29.8538 44.2883 30.7068 43.4922 30.9342L42.8099 31.1332L44.1462 31.9009C44.8854 32.299 45.1129 33.2656 44.7148 33.9765C44.3168 34.7441 43.3501 35 42.5824 34.5451L41.2745 33.7774L41.4451 34.4314C41.6726 35.2559 41.1892 36.1089 40.3647 36.3363C39.5402 36.5638 38.6872 36.052 38.4597 35.2275L37.5215 31.5882L30.4703 27.5508V35.7961L33.1714 38.4403C33.74 39.0374 33.74 40.0325 33.1714 40.6296C32.5743 41.2267 31.5792 41.2267 30.9821 40.6296L30.4703 40.1178V41.6247C30.4703 42.4492 29.8448 43.1316 29.0203 43.16V6.90903H29.0771Z" fill="#C9EBF9"/>
<path d="M23.1349 64.1998V58.5987H24.2722V64.1998H23.1349ZM28.9066 62.1527L30.0155 62.4939C29.8164 63.091 29.5321 63.5743 29.1625 63.8587C28.7929 64.143 28.2811 64.3136 27.684 64.3136C26.9448 64.3136 26.3193 64.0577 25.8359 63.5459C25.3526 63.0341 25.1536 62.3517 25.1536 61.4703C25.1536 60.5605 25.381 59.8213 25.8359 59.3095C26.3477 58.7977 26.9732 58.5134 27.7409 58.5134C28.4233 58.5134 28.9635 58.7408 29.4184 59.1389C29.6743 59.3664 29.8733 59.7075 29.987 60.1625L28.8782 60.4468C28.8213 60.134 28.6507 59.9066 28.4801 59.7644C28.2527 59.5938 27.9968 59.5085 27.684 59.5085C27.286 59.5085 26.9448 59.6791 26.7173 59.9634C26.433 60.2478 26.3193 60.7595 26.3193 61.4135C26.3193 62.0959 26.433 62.6076 26.6889 62.892C26.9448 63.2047 27.286 63.3753 27.7125 63.3753C27.9968 63.3753 28.2527 63.29 28.4801 63.091C28.6507 62.892 28.8213 62.5792 28.9066 62.1527ZM30.9822 64.1998V58.5987H35.1333V59.5369H32.1195V60.788H34.9342V61.6978H32.1195V63.2047H35.247V64.143H30.9822V64.1998Z" fill="#414042"/>
</g>
<defs>
<filter id="filter0_d" x="0" y="0" width="58.1828" height="72.3136" filterUnits="userSpaceOnUse" color-interpolation-filters="sRGB">
<feFlood flood-opacity="0" result="BackgroundImageFix"/>
<feColorMatrix in="SourceAlpha" type="matrix" values="0 0 0 0 0 0 0 0 0 0 0 0 0 0 0 0 0 0 127 0"/>
<feOffset dy="4"/>
<feGaussianBlur stdDeviation="2"/>
<feColorMatrix type="matrix" values="0 0 0 0 0 0 0 0 0 0 0 0 0 0 0 0 0 0 0.25 0"/>
<feBlend mode="normal" in2="BackgroundImageFix" result="effect1_dropShadow"/>
<feBlend mode="normal" in="SourceGraphic" in2="effect1_dropShadow" result="shape"/>
</filter>
</defs>
</svg>
