<svg width="40" height="37" viewBox="0 0 40 37" fill="none" xmlns="http://www.w3.org/2000/svg">
<path fill-rule="evenodd" clip-rule="evenodd" d="M39.3531 35.7399C38.9382 36.1173 38.3753 36.3296 37.7884 36.3296C37.2014 36.3296 36.6385 36.1173 36.2236 35.7399L24.8359 25.3854C18.3284 29.8288 9.15026 28.9466 3.80893 23.3638C-1.53218 17.7812 -1.221 9.39561 4.52152 4.1528C10.2643 -1.09001 19.487 -1.40829 25.6504 3.42375C31.8138 8.2556 32.8235 16.5957 27.9632 22.5304L39.3531 32.8849C40.2156 33.6751 40.2156 34.9498 39.3531 35.7399ZM23.4293 7.04885C20.2669 4.1731 15.5103 3.31236 11.3778 4.86816C7.24516 6.42395 4.55049 10.0899 4.55049 14.1563C4.55049 18.2225 7.24516 21.8884 11.3778 23.4442C15.5103 25 20.2669 24.1394 23.4293 21.2637C25.5093 19.3818 26.6789 16.8239 26.6789 14.1563C26.6789 11.4884 25.5093 8.93056 23.4293 7.04885Z" fill="white"/>
</svg>
