<svg width="59" height="73" viewBox="0 0 59 73" fill="none" xmlns="http://www.w3.org/2000/svg">
<g filter="url(#filter0_d)">
<path fill-rule="evenodd" clip-rule="evenodd" d="M29.0772 0C42.9236 0 54.1828 11.2307 54.1828 25.0772C54.1828 38.9237 42.9236 50.1544 29.0772 50.1544C15.2307 50.1544 4 38.9237 4 25.0772C4 11.2307 15.2307 0 29.0772 0Z" fill="#F3B81A"/>
<path fill-rule="evenodd" clip-rule="evenodd" d="M29.0772 3.8147e-06C42.9236 3.8147e-06 54.1828 11.2307 54.1828 25.0772C54.1828 38.9237 42.9236 50.1544 29.0772 50.1544V3.8147e-06Z" fill="#F48B20"/>
<path fill-rule="evenodd" clip-rule="evenodd" d="M29.0772 7.39238C36.2137 7.39238 42.0138 18.7368 42.0138 28.4891C42.0138 47.4817 16.1406 47.4817 16.1406 28.4891C16.1406 18.7368 21.9407 7.39238 29.0772 7.39238Z" fill="#B56428"/>
<path fill-rule="evenodd" clip-rule="evenodd" d="M29.0772 7.39238C36.2136 7.39238 42.0138 18.7368 42.0138 28.489C42.0138 37.9854 35.5597 42.762 29.0772 42.762V7.39238Z" fill="#915022"/>
<path d="M12.7286 64.1998V58.5987H13.8375L16.1121 62.3233V58.5987H17.1641V64.1998H16.0268L13.7806 60.5605V64.1998H12.7286ZM18.1307 61.4703C18.1307 60.9017 18.1876 60.4183 18.3866 60.0487C18.5004 59.7644 18.671 59.4801 18.8984 59.2526C19.1259 59.0252 19.3818 58.883 19.6377 58.7408C19.9789 58.6271 20.4053 58.5134 20.8318 58.5134C21.6563 58.5134 22.3103 58.7693 22.8221 59.3095C23.3054 59.8213 23.5613 60.5036 23.5613 61.4419C23.5613 62.3517 23.3054 63.0625 22.8221 63.5743C22.3103 64.0861 21.6848 64.342 20.8603 64.342C20.0073 64.342 19.3534 64.0861 18.87 63.5743C18.3582 63.0341 18.1307 62.3517 18.1307 61.4703ZM19.268 61.4419C19.268 62.0674 19.4387 62.5508 19.723 62.8635C20.0357 63.2047 20.3769 63.3753 20.8603 63.3753C21.3152 63.3753 21.6563 63.2047 21.9691 62.8635C22.2534 62.5508 22.3671 62.0674 22.3671 61.4135C22.3671 60.788 22.2534 60.3046 21.9691 59.9919C21.6848 59.6791 21.3152 59.5085 20.8603 59.5085C20.3769 59.5085 20.0073 59.6791 19.723 59.9919C19.4387 60.3046 19.268 60.7595 19.268 61.4419ZM24.4143 64.1998V58.5987H26.7741C27.3712 58.5987 27.8261 58.6556 28.082 58.7693C28.3663 58.8546 28.5938 59.0536 28.736 59.3095C28.9065 59.5654 28.9918 59.8781 28.9918 60.1909C28.9918 60.5889 28.8781 60.9586 28.6222 61.2429C28.3663 61.4988 28.0251 61.6978 27.5134 61.7547C27.7692 61.9253 27.9683 62.0674 28.1105 62.238C28.2811 62.4086 28.4801 62.7214 28.736 63.1478L29.4183 64.2283H28.0536L27.2575 63.0341C26.9447 62.5792 26.7457 62.2949 26.6604 62.2096C26.5467 62.0958 26.4329 62.0106 26.3192 61.9537C26.2055 61.9253 26.0065 61.8968 25.7506 61.8968H25.5231V64.2283H24.4143V64.1998ZM25.5516 60.987H26.3761C26.9163 60.987 27.2575 60.9586 27.3997 60.9301C27.5702 60.9017 27.6555 60.8164 27.7124 60.7027C27.7977 60.5889 27.8261 60.4468 27.8261 60.2478C27.8261 60.0487 27.7692 59.935 27.6555 59.7928C27.5702 59.6791 27.4281 59.5938 27.2575 59.5654C27.1722 59.5654 26.8879 59.5369 26.433 59.5369H25.5516V60.987ZM30.0438 64.1998V58.5987H31.7213L32.7449 62.437L33.7684 58.5987H35.4744V64.1998H34.394V59.7928L33.2851 64.1998H32.2047L31.0958 59.7928V64.1998H30.0438ZM41.5873 64.1998H40.3931L39.8813 62.9488H37.6352L37.1803 64.1998H35.9862L38.1754 58.5987H39.3696L41.5873 64.1998ZM39.5402 62.0106L38.7441 59.9634L37.9764 62.0106H39.5402ZM42.2412 64.1998V58.6555H43.3785V63.2616H46.1933V64.1998H42.2412Z" fill="#414042"/>
</g>
<defs>
<filter id="filter0_d" x="0" y="0" width="58.1828" height="72.342" filterUnits="userSpaceOnUse" color-interpolation-filters="sRGB">
<feFlood flood-opacity="0" result="BackgroundImageFix"/>
<feColorMatrix in="SourceAlpha" type="matrix" values="0 0 0 0 0 0 0 0 0 0 0 0 0 0 0 0 0 0 127 0"/>
<feOffset dy="4"/>
<feGaussianBlur stdDeviation="2"/>
<feColorMatrix type="matrix" values="0 0 0 0 0 0 0 0 0 0 0 0 0 0 0 0 0 0 0.25 0"/>
<feBlend mode="normal" in2="BackgroundImageFix" result="effect1_dropShadow"/>
<feBlend mode="normal" in="SourceGraphic" in2="effect1_dropShadow" result="shape"/>
</filter>
</defs>
</svg>
