<svg width="59" height="73" viewBox="0 0 59 73" fill="none" xmlns="http://www.w3.org/2000/svg">
<g filter="url(#filter0_d)">
<path fill-rule="evenodd" clip-rule="evenodd" d="M29.0772 0C42.9521 0 54.1828 11.2307 54.1828 25.1056C54.1828 38.9521 42.9521 50.1828 29.0772 50.1828C15.2307 50.1828 4 38.9521 4 25.1056C4 11.2307 15.2307 0 29.0772 0Z" fill="#B92025"/>
<path fill-rule="evenodd" clip-rule="evenodd" d="M29.0772 0C42.9521 0 54.1828 11.2307 54.1828 25.1056C54.1828 38.9521 42.9521 50.1828 29.0772 50.1828V0Z" fill="#8F191C"/>
<path fill-rule="evenodd" clip-rule="evenodd" d="M29.0771 7.98944C35.1616 7.98944 40.0519 12.9082 40.0519 18.9643C40.0519 22.5183 38.3744 25.6742 35.7587 27.6645C34.1381 33.8058 24.0731 33.8058 22.424 27.6645C19.8367 25.6742 18.1592 22.5183 18.1592 18.9643C18.1307 12.9082 23.0495 7.98944 29.0771 7.98944ZM44.6864 32.697C44.9138 33.5215 44.4021 34.4029 43.5775 34.6304L35.19 36.8765L43.5775 39.1227C44.4021 39.3501 44.9138 40.2031 44.6864 41.0561C44.4589 41.8806 43.5775 42.3924 42.753 42.1649L29.1056 38.4972L15.4581 42.1649C14.6052 42.3924 13.7522 41.8806 13.5247 41.0561C13.2973 40.2031 13.8091 39.3501 14.6336 39.1227L23.0211 36.8765L14.6336 34.6304C13.8091 34.4029 13.2973 33.5215 13.5247 32.697C13.7522 31.844 14.6052 31.3323 15.4581 31.5882L29.0771 35.2275L42.7246 31.5882C43.5775 31.3607 44.4589 31.844 44.6864 32.697ZM25.1251 14.6141C26.3761 14.6141 27.4281 16.4054 27.4281 18.5946C27.4281 20.8124 26.3761 22.5751 25.1251 22.5751C23.8172 22.5751 22.8221 20.8124 22.8221 18.5946C22.8221 16.4338 23.8456 14.6141 25.1251 14.6141ZM33.0576 14.6141C34.3655 14.6141 35.3606 16.4054 35.3606 18.5946C35.3606 20.8124 34.3371 22.5751 33.0576 22.5751C31.8066 22.5751 30.7546 20.8124 30.7546 18.5946C30.7546 16.4338 31.8066 14.6141 33.0576 14.6141ZM27.8546 23.8546C28.1104 23.8546 28.3379 24.1958 28.3379 24.6507C28.3379 25.1056 28.1104 25.4752 27.8546 25.4752C27.5987 25.4752 27.3712 25.1056 27.3712 24.6507C27.3712 24.1958 27.5987 23.8546 27.8546 23.8546ZM30.3566 23.8546C30.6125 23.8546 30.8399 24.1958 30.8399 24.6507C30.8399 25.1056 30.6125 25.4752 30.3566 25.4752C30.0723 25.4752 29.8732 25.1056 29.8732 24.6507C29.8732 24.1958 30.0723 23.8546 30.3566 23.8546Z" fill="white"/>
<path fill-rule="evenodd" clip-rule="evenodd" d="M29.0772 7.98944C35.1617 7.98944 40.052 12.9082 40.052 18.9643C40.052 22.5183 38.3745 25.6742 35.7588 27.6645C34.9627 30.7352 32.0342 32.2421 29.0772 32.2421V7.98944ZM29.0772 38.4972V35.2275L42.7246 31.5882C43.5492 31.3323 44.4306 31.844 44.658 32.697C44.8855 33.5215 44.3737 34.4029 43.5492 34.6304L35.1617 36.8765L43.5492 39.1227C44.3737 39.3501 44.8855 40.2031 44.658 41.0561C44.4306 41.8806 43.5492 42.3924 42.7246 42.1649L29.0772 38.4972ZM33.0577 14.6141C34.3656 14.6141 35.3607 16.4054 35.3607 18.5946C35.3607 20.8124 34.3372 22.5751 33.0577 22.5751C31.8067 22.5751 30.7547 20.8124 30.7547 18.5946C30.7547 16.4338 31.8067 14.6141 33.0577 14.6141ZM30.3567 23.8546C30.6125 23.8546 30.84 24.1958 30.84 24.6507C30.84 25.1056 30.6125 25.4752 30.3567 25.4752C30.0723 25.4752 29.8733 25.1056 29.8733 24.6507C29.8733 24.1958 30.0723 23.8546 30.3567 23.8546Z" fill="#E5E6E7"/>
<path d="M14.6621 64.2567V58.6556H16.5102C17.1641 58.6556 17.6191 58.684 17.8465 58.7409C18.1593 58.7977 18.4436 58.9967 18.6426 59.2811C18.8701 59.5654 18.9838 59.9066 18.9838 60.3615C18.9838 60.7027 18.9269 60.987 18.7848 61.2429C18.671 61.4704 18.5005 61.6409 18.3014 61.7831C18.1024 61.8968 17.9318 62.0106 17.7043 62.039C17.4485 62.0959 17.0504 62.1243 16.5386 62.1243H15.7994V64.2567H14.6621ZM15.7994 59.6223V61.2145H16.3965C16.8798 61.2145 17.1641 61.186 17.3063 61.1292C17.42 61.0723 17.5622 61.0154 17.6475 60.8733C17.7328 60.7596 17.7612 60.5889 17.7612 60.4184C17.7612 60.1909 17.7043 60.0487 17.5622 59.9066C17.4485 59.7929 17.3063 59.6791 17.1073 59.6507C16.9935 59.6223 16.7092 59.6223 16.2827 59.6223H15.7994ZM19.6662 61.4704C19.6662 60.9017 19.723 60.4184 19.9221 60.0487C20.0358 59.7644 20.2064 59.5085 20.4338 59.2811C20.6613 59.0536 20.9172 58.883 21.1731 58.7693C21.5143 58.5987 21.9407 58.5418 22.3672 58.5418C23.1918 58.5418 23.8457 58.7977 24.3575 59.3095C24.8408 59.8213 25.0967 60.5321 25.0967 61.4704C25.0967 62.3517 24.8408 63.0626 24.3575 63.6028C23.8457 64.1145 23.2202 64.3704 22.3957 64.3704C21.5427 64.3704 20.9172 64.1145 20.4054 63.6028C19.8936 63.091 19.6662 62.4086 19.6662 61.4704ZM20.8319 61.4419C20.8319 62.0674 20.9456 62.5508 21.2299 62.892C21.5427 63.2047 21.8839 63.3753 22.3672 63.3753C22.8221 63.3753 23.1633 63.2047 23.4761 62.892C23.7604 62.5792 23.8741 62.0674 23.8741 61.4419C23.8741 60.788 23.7604 60.3046 23.4761 59.9919C23.1918 59.6791 22.8221 59.5085 22.3672 59.5085C21.8839 59.5085 21.5143 59.7076 21.2299 60.0203C20.9456 60.3331 20.8319 60.8164 20.8319 61.4419ZM25.9212 64.2567V58.6556H27.0585V64.2567H25.9212ZM27.8546 62.4371L28.9351 62.3517C28.9919 62.7214 29.1625 62.9773 29.3331 63.1763C29.5321 63.3469 29.8165 63.4322 30.1576 63.4322C30.4988 63.4322 30.7831 63.3469 30.9822 63.1763C31.1812 63.0626 31.2665 62.8635 31.2665 62.6361C31.2665 62.5223 31.2096 62.4086 31.1528 62.3233C31.0959 62.238 30.9253 62.1243 30.7547 62.0674C30.641 62.039 30.2998 61.9537 29.8733 61.8115C29.2478 61.6978 28.8213 61.4988 28.5654 61.2713C28.2243 60.9586 28.0537 60.5889 28.0537 60.134C28.0537 59.8497 28.139 59.5938 28.3096 59.3379C28.4801 59.082 28.6792 58.883 28.9919 58.7693C29.2762 58.6556 29.6459 58.5703 30.1008 58.5703C30.7831 58.5703 31.2949 58.7409 31.693 59.0536C32.0342 59.3379 32.2332 59.736 32.2332 60.2478L31.1243 60.3046C31.0675 60.0203 30.9537 59.7929 30.8116 59.6791C30.641 59.5654 30.4135 59.5085 30.0723 59.5085C29.7596 59.5085 29.5037 59.5654 29.3047 59.7076C29.1909 59.7928 29.1056 59.9066 29.1056 60.0487C29.1056 60.1625 29.1625 60.3046 29.2762 60.3899C29.4468 60.4752 29.788 60.6174 30.3282 60.7311C30.8969 60.8449 31.2665 61.0154 31.5508 61.1292C31.8067 61.2998 32.0342 61.4419 32.1479 61.6978C32.3185 61.9537 32.3753 62.238 32.3753 62.5792C32.3753 62.892 32.3185 63.2047 32.1195 63.489C31.9204 63.7734 31.6645 63.9724 31.3518 64.0861C31.039 64.2567 30.6126 64.3136 30.1576 64.3136C29.4184 64.3136 28.9066 64.143 28.5086 63.8018C28.139 63.5459 27.9115 63.0626 27.8546 62.4371ZM33.1146 61.4704C33.1146 60.9017 33.1999 60.4184 33.3705 60.0487C33.4842 59.7644 33.6832 59.5085 33.9107 59.2811C34.1381 59.0536 34.3656 58.883 34.6499 58.7693C34.9911 58.5987 35.3892 58.5418 35.8441 58.5418C36.6686 58.5418 37.3225 58.7977 37.8059 59.3095C38.3177 59.8213 38.5736 60.5321 38.5736 61.4704C38.5736 62.3517 38.3177 63.0626 37.8059 63.6028C37.3225 64.1145 36.6686 64.3704 35.8441 64.3704C35.0195 64.3704 34.3656 64.1145 33.8538 63.6028C33.342 63.091 33.1146 62.4086 33.1146 61.4704ZM34.2803 61.4419C34.2803 62.0674 34.4509 62.5508 34.7352 62.892C35.0195 63.2047 35.3892 63.3753 35.8441 63.3753C36.299 63.3753 36.6686 63.2047 36.9529 62.892C37.2372 62.5792 37.4078 62.0674 37.4078 61.4419C37.4078 60.788 37.2372 60.3046 36.9529 59.9919C36.697 59.6791 36.3274 59.5085 35.8441 59.5085C35.3607 59.5085 34.9911 59.7076 34.7068 60.0203C34.394 60.3331 34.2803 60.8164 34.2803 61.4419ZM39.4265 64.2567V58.6556H40.5354L42.81 62.3802V58.6556H43.8619V64.2567H42.7247L40.4785 60.589V64.2567H39.4265Z" fill="#414042"/>
</g>
<defs>
<filter id="filter0_d" x="0" y="0" width="58.1828" height="72.3704" filterUnits="userSpaceOnUse" color-interpolation-filters="sRGB">
<feFlood flood-opacity="0" result="BackgroundImageFix"/>
<feColorMatrix in="SourceAlpha" type="matrix" values="0 0 0 0 0 0 0 0 0 0 0 0 0 0 0 0 0 0 127 0"/>
<feOffset dy="4"/>
<feGaussianBlur stdDeviation="2"/>
<feColorMatrix type="matrix" values="0 0 0 0 0 0 0 0 0 0 0 0 0 0 0 0 0 0 0.25 0"/>
<feBlend mode="normal" in2="BackgroundImageFix" result="effect1_dropShadow"/>
<feBlend mode="normal" in="SourceGraphic" in2="effect1_dropShadow" result="shape"/>
</filter>
</defs>
</svg>
