<svg width="59" height="73" viewBox="0 0 59 73" fill="none" xmlns="http://www.w3.org/2000/svg">
<g filter="url(#filter0_d)">
<path fill-rule="evenodd" clip-rule="evenodd" d="M29.0772 0C42.9236 0 54.1828 11.2307 54.1828 25.0772C54.1828 38.9521 42.9236 50.1828 29.0772 50.1828C15.2307 50.1828 4 38.9521 4 25.0772C4 11.2307 15.2307 0 29.0772 0Z" fill="#533E28"/>
<path fill-rule="evenodd" clip-rule="evenodd" d="M29.0772 0C42.9236 0 54.1828 11.2307 54.1828 25.0772C54.1828 38.9521 42.9236 50.1828 29.0772 50.1828V0Z" fill="#352414"/>
<path fill-rule="evenodd" clip-rule="evenodd" d="M29.6458 37.4736L39.9098 19.5898C40.1657 19.1064 39.853 18.6231 39.3412 18.6231L18.7278 18.6799C18.1023 18.6799 17.8464 19.1348 18.1592 19.6466L28.5369 37.4736C28.8497 38.0422 29.3046 38.0422 29.6458 37.4736ZM25.4663 45.1218L20.7181 42.3924C20.2063 42.0796 19.9504 41.71 19.9504 41.0845V38.554C19.9504 37.6158 20.4053 37.4736 21.1161 37.9285L27.5134 41.5963C28.3663 42.1649 29.6742 42.1649 30.5272 41.5963L36.896 37.9285C37.6636 37.4736 38.0902 37.6158 38.0902 38.554V41.0845C38.0902 41.6816 37.8342 42.0512 37.3225 42.3924L32.5459 45.1218C30.2144 46.515 27.8546 46.515 25.4663 45.1218ZM48.0983 18.3672V23.883C48.0983 24.4517 47.8708 24.9066 47.359 25.1909L45.1413 26.4419C44.3168 26.9253 44.004 26.6125 44.004 25.7595V18.3672C44.0609 17.3152 43.407 16.2063 42.4971 15.7798L36.1283 12.0837C35.3607 11.6856 35.2469 11.2307 36.0715 10.7474L38.2892 9.43947C38.8009 9.15515 39.2559 9.18358 39.7677 9.46791L44.5442 12.2258C46.9041 13.5906 48.0983 15.6377 48.0983 18.3672ZM13.6101 12.169L18.3582 9.41104C18.87 9.12672 19.3818 9.09829 19.8367 9.38261L22.0544 10.6336C22.8789 11.117 22.7368 11.5719 22.026 11.9984L15.6287 15.6661C14.7189 16.1495 14.0934 17.2868 14.1502 18.2819V25.6174C14.1502 26.4703 13.8091 26.8115 13.0129 26.3566L10.7953 25.1056C10.2835 24.8213 10.056 24.3664 10.056 23.7693V18.3103C10.0845 15.5808 11.2502 13.5337 13.6101 12.169Z" fill="#8B7E71"/>
<path fill-rule="evenodd" clip-rule="evenodd" d="M29.6458 37.4736L39.9098 19.5898C40.1657 19.1064 39.853 18.6231 39.3412 18.6231L29.0772 18.6515V37.9285C29.2762 37.9001 29.4752 37.7579 29.6458 37.4736ZM29.0772 42.0227V46.1738C30.2429 46.1454 31.4086 45.8326 32.5459 45.1218L37.3225 42.3924C37.8343 42.0796 38.0902 41.71 38.0902 41.0845V38.554C38.0902 37.6157 37.6353 37.4736 36.896 37.9285L30.5272 41.5963C30.1292 41.8521 29.6174 42.0227 29.0772 42.0227ZM48.0983 18.3672V23.883C48.0983 24.4517 47.8708 24.9066 47.3591 25.1909L45.1413 26.4419C44.3168 26.9253 44.004 26.6125 44.004 25.7595V18.3672C44.0609 17.3152 43.407 16.2063 42.4972 15.7798L36.1284 12.0837C35.3607 11.6856 35.247 11.2307 36.0715 10.7474L38.2892 9.43947C38.801 9.15515 39.2559 9.18358 39.7677 9.4679L44.5443 12.2258C46.9041 13.5906 48.0983 15.6377 48.0983 18.3672Z" fill="#745C44"/>
<path d="M16.965 62.4086L18.0739 62.3233C18.1308 62.6645 18.2729 62.9488 18.4719 63.1194C18.671 63.3184 18.9553 63.4037 19.2965 63.4037C19.6377 63.4037 19.922 63.3184 20.121 63.1478C20.32 62.9772 20.3769 62.8351 20.3769 62.6076C20.3769 62.4939 20.3485 62.3802 20.2916 62.2949C20.2063 62.2096 20.0642 62.0959 19.8936 62.039C19.7798 61.9821 19.4386 61.9253 18.9837 61.7831C18.3866 61.6125 17.9602 61.4703 17.7327 61.2429C17.3915 60.9301 17.2209 60.5605 17.2209 60.1056C17.2209 59.8213 17.2778 59.5654 17.4484 59.3095C17.6474 59.0536 17.8464 58.8546 18.1876 58.7409C18.4719 58.6271 18.8415 58.5418 19.268 58.5418C20.0073 58.5418 20.4906 58.7124 20.8603 58.9967C21.2299 59.3095 21.4289 59.736 21.4289 60.2193L20.2916 60.2762C20.2632 59.9919 20.1779 59.7644 20.0073 59.6507C19.8367 59.537 19.6092 59.4517 19.268 59.4517C18.9553 59.4517 18.671 59.537 18.5004 59.6791C18.3866 59.736 18.3014 59.8781 18.3014 60.0203C18.3014 60.134 18.3582 60.2762 18.4719 60.3331C18.6425 60.4468 18.9837 60.5889 19.5239 60.7027C20.0641 60.8164 20.4622 60.987 20.7465 61.1007C21.0024 61.2145 21.2014 61.4135 21.3436 61.6694C21.5142 61.9253 21.5711 62.2096 21.5711 62.5508C21.5711 62.8635 21.4858 63.1763 21.3152 63.4606C21.1161 63.7165 20.8602 63.9439 20.5475 64.0577C20.2347 64.2283 19.8083 64.2851 19.3249 64.2851C18.6425 64.2851 18.1023 64.1145 17.7043 63.7733C17.2778 63.5175 17.0503 63.0625 16.965 62.4086ZM23.7319 64.2567V59.6223H22.0828V58.684H26.5182V59.6223H24.8692V64.2567H23.7319ZM27.229 64.2567V58.6556H31.3802V59.5938H28.3663V60.8164H31.1527V61.7547H28.3663V63.2616H31.4654V64.1998H27.229V64.2567ZM32.4606 64.2567V58.6556H36.6117V59.5938H33.5694V60.8164H36.3842V61.7547H33.5694V63.2616H36.697V64.1998H32.4606V64.2567ZM37.6637 64.2567V58.684H38.801V63.29H41.6158V64.2283H37.6637V64.2567Z" fill="#414042"/>
</g>
<defs>
<filter id="filter0_d" x="0" y="0" width="58.1828" height="72.2851" filterUnits="userSpaceOnUse" color-interpolation-filters="sRGB">
<feFlood flood-opacity="0" result="BackgroundImageFix"/>
<feColorMatrix in="SourceAlpha" type="matrix" values="0 0 0 0 0 0 0 0 0 0 0 0 0 0 0 0 0 0 127 0"/>
<feOffset dy="4"/>
<feGaussianBlur stdDeviation="2"/>
<feColorMatrix type="matrix" values="0 0 0 0 0 0 0 0 0 0 0 0 0 0 0 0 0 0 0.25 0"/>
<feBlend mode="normal" in2="BackgroundImageFix" result="effect1_dropShadow"/>
<feBlend mode="normal" in="SourceGraphic" in2="effect1_dropShadow" result="shape"/>
</filter>
</defs>
</svg>
