<svg width="78" height="78" viewBox="0 0 78 78" fill="none" xmlns="http://www.w3.org/2000/svg">
<g filter="url(#filter0_d)">
<path d="M74 35C74 54.3291 58.3291 70 39 70C19.6709 70.0052 4 54.3342 4 35C4 15.6709 19.6709 0 39 0C58.3342 0 74 15.6709 74 35Z" fill="#DC143C"/>
<g filter="url(#filter1_d)">
<path d="M21.9495 49.0744C25.5198 51.3633 29.7617 52.7015 34.3189 52.7015C49.2974 52.7015 57.7607 40.048 57.2543 28.7016C58.8302 27.5649 60.1994 26.1441 61.2793 24.5269C59.8326 25.1675 58.2774 25.6016 56.6447 25.7979C58.3084 24.8007 59.5897 23.2197 60.1891 21.3338C58.6287 22.2586 56.903 22.9303 55.0688 23.292C53.5962 21.7213 51.4985 20.7448 49.1786 20.7448C43.9705 20.7448 40.1419 25.6067 41.3199 30.6547C34.6134 30.3189 28.6664 27.1051 24.6879 22.2225C22.5747 25.8496 23.5926 30.5927 27.1835 32.9953C25.8608 32.9539 24.6156 32.5871 23.5254 31.9826C23.4376 35.7233 26.1191 39.2161 29.9994 39.9963C28.8627 40.3063 27.6175 40.3735 26.3568 40.1358C27.3798 43.3444 30.3611 45.6746 33.89 45.7366C30.5058 48.3975 26.2328 49.5807 21.9495 49.0744Z" fill="white"/>
</g>
</g>
<defs>
<filter id="filter0_d" x="0" y="0" width="78" height="78" filterUnits="userSpaceOnUse" color-interpolation-filters="sRGB">
<feFlood flood-opacity="0" result="BackgroundImageFix"/>
<feColorMatrix in="SourceAlpha" type="matrix" values="0 0 0 0 0 0 0 0 0 0 0 0 0 0 0 0 0 0 127 0"/>
<feOffset dy="4"/>
<feGaussianBlur stdDeviation="2"/>
<feColorMatrix type="matrix" values="0 0 0 0 0 0 0 0 0 0 0 0 0 0 0 0 0 0 0.25 0"/>
<feBlend mode="normal" in2="BackgroundImageFix" result="effect1_dropShadow"/>
<feBlend mode="normal" in="SourceGraphic" in2="effect1_dropShadow" result="shape"/>
</filter>
<filter id="filter1_d" x="17.9495" y="20.7448" width="47.3298" height="39.9567" filterUnits="userSpaceOnUse" color-interpolation-filters="sRGB">
<feFlood flood-opacity="0" result="BackgroundImageFix"/>
<feColorMatrix in="SourceAlpha" type="matrix" values="0 0 0 0 0 0 0 0 0 0 0 0 0 0 0 0 0 0 127 0"/>
<feOffset dy="4"/>
<feGaussianBlur stdDeviation="2"/>
<feColorMatrix type="matrix" values="0 0 0 0 0 0 0 0 0 0 0 0 0 0 0 0 0 0 0.25 0"/>
<feBlend mode="normal" in2="BackgroundImageFix" result="effect1_dropShadow"/>
<feBlend mode="normal" in="SourceGraphic" in2="effect1_dropShadow" result="shape"/>
</filter>
</defs>
</svg>
