<svg width="59" height="73" viewBox="0 0 59 73" fill="none" xmlns="http://www.w3.org/2000/svg">
<g filter="url(#filter0_d)">
<path fill-rule="evenodd" clip-rule="evenodd" d="M29.0772 0C42.9521 0 54.1828 11.2307 54.1828 25.0772C54.1828 38.9521 42.9521 50.1828 29.0772 50.1828C15.2307 50.1828 4 38.9521 4 25.0772C4 11.2307 15.2307 0 29.0772 0Z" fill="#1FAFDF"/>
<path fill-rule="evenodd" clip-rule="evenodd" d="M29.0772 0C42.9521 0 54.1828 11.2307 54.1828 25.0772C54.1828 38.9521 42.9521 50.1828 29.0772 50.1828V0Z" fill="#0A87B3"/>
<path fill-rule="evenodd" clip-rule="evenodd" d="M39.4549 9.24047C34.7352 9.83754 29.8448 11.8562 25.8359 14.7563C11.9041 24.736 16.5386 40.9992 30.6694 39.3217C36.6401 38.6393 39.9667 33.9196 39.853 29.2283C39.7961 26.7547 38.801 24.9066 36.7254 22.3761C32.9724 17.8838 35.3038 12.8514 39.9951 10.264C41.303 9.49636 40.8765 9.04144 39.4549 9.24047Z" fill="#C9EBF9"/>
<path fill-rule="evenodd" clip-rule="evenodd" d="M39.455 9.24047C35.9862 9.69538 32.3753 10.918 29.0772 12.6808V39.4354C29.6174 39.4354 30.1292 39.3786 30.6694 39.3217C36.6402 38.6393 39.9667 33.9196 39.853 29.2283C39.7961 26.7547 38.801 24.9066 36.7255 22.3761C32.9724 17.8838 35.3039 12.8514 39.9952 10.264C41.303 9.49636 40.8766 9.04144 39.455 9.24047Z" fill="#65CDF6"/>
<path fill-rule="evenodd" clip-rule="evenodd" d="M33.74 22.1202C34.6498 22.1202 35.3891 23.0301 35.3891 24.1674C35.3891 25.3331 34.6498 26.2429 33.74 26.2429C32.8302 26.2429 32.0909 25.3331 32.0909 24.1674C32.1194 23.0585 32.8302 22.1202 33.74 22.1202Z" fill="white"/>
<path fill-rule="evenodd" clip-rule="evenodd" d="M35.9294 26.4419C36.2705 26.4419 36.5549 26.7831 36.5549 27.238C36.5549 27.6361 36.2705 28.0057 35.9294 28.0057C35.5882 28.0057 35.3323 27.6645 35.3323 27.238C35.3323 26.7831 35.5882 26.4419 35.9294 26.4419Z" fill="white"/>
<path d="M16.6523 64.2567L15.316 58.6556H16.4817L17.3062 62.4939L18.3582 58.6556H19.6945L20.6612 62.5508L21.5142 58.6556H22.6515L21.2867 64.2567H20.0926L18.9837 60.0487L17.8749 64.2567H16.6523ZM27.8546 64.2567H26.632L26.1486 62.9488H23.9025L23.4476 64.2567H22.2534L24.4427 58.6556H25.6084L27.8546 64.2567ZM25.779 62.039L24.9829 59.9635L24.2152 62.039H25.779ZM29.134 64.2567V59.6223H27.4565V58.684H31.9204V59.6223H30.2429V64.2567H29.134ZM32.6596 64.2567V58.6556H36.8107V59.5938H33.7685V60.8164H36.5832V61.7547H33.7685V63.2616H36.896V64.1998H32.6596V64.2567ZM37.8627 64.2567V58.6556H40.2226C40.8196 58.6556 41.2461 58.684 41.5304 58.8262C41.7863 58.9115 42.0138 59.0821 42.1559 59.3664C42.355 59.6223 42.4118 59.9066 42.4118 60.2193C42.4118 60.6743 42.2981 61.0154 42.0422 61.2713C41.8148 61.5557 41.4451 61.7262 40.9334 61.8115C41.1892 61.9253 41.4167 62.0959 41.5589 62.2665C41.7295 62.4655 41.9001 62.7498 42.1844 63.1763L42.8383 64.2851H41.5304L40.7059 63.0626C40.4216 62.6076 40.2226 62.3802 40.1088 62.238C40.0235 62.1527 39.8814 62.039 39.7676 62.0106C39.6823 61.9537 39.4833 61.9537 39.199 61.9537H38.9715V64.2851H37.8627V64.2567ZM38.9715 61.0154H39.8245C40.3647 61.0154 40.6775 60.987 40.8481 60.9301C40.9618 60.9017 41.0755 60.8448 41.1608 60.7027C41.2177 60.589 41.2461 60.4468 41.2461 60.3046C41.2461 60.1056 41.2177 59.9635 41.1324 59.8213C41.0187 59.736 40.8765 59.6223 40.6775 59.5938C40.5922 59.5938 40.3363 59.5938 39.8529 59.5938H38.9715V61.0154Z" fill="#414042"/>
</g>
<defs>
<filter id="filter0_d" x="0" y="0" width="58.1828" height="72.2851" filterUnits="userSpaceOnUse" color-interpolation-filters="sRGB">
<feFlood flood-opacity="0" result="BackgroundImageFix"/>
<feColorMatrix in="SourceAlpha" type="matrix" values="0 0 0 0 0 0 0 0 0 0 0 0 0 0 0 0 0 0 127 0"/>
<feOffset dy="4"/>
<feGaussianBlur stdDeviation="2"/>
<feColorMatrix type="matrix" values="0 0 0 0 0 0 0 0 0 0 0 0 0 0 0 0 0 0 0.25 0"/>
<feBlend mode="normal" in2="BackgroundImageFix" result="effect1_dropShadow"/>
<feBlend mode="normal" in="SourceGraphic" in2="effect1_dropShadow" result="shape"/>
</filter>
</defs>
</svg>
