<svg width="59" height="73" viewBox="0 0 59 73" fill="none" xmlns="http://www.w3.org/2000/svg">
<g filter="url(#filter0_d)">
<path fill-rule="evenodd" clip-rule="evenodd" d="M29.0772 0C42.9521 0 54.1828 11.2307 54.1828 25.1056C54.1828 38.9521 42.9521 50.1828 29.0772 50.1828C15.2307 50.1828 4 38.9521 4 25.1056C4.02843 11.2307 15.2307 0 29.0772 0Z" fill="#56B947"/>
<path fill-rule="evenodd" clip-rule="evenodd" d="M29.0771 0C42.9521 0 54.1828 11.2307 54.1828 25.1056C54.1828 38.9521 42.9521 50.1828 29.0771 50.1828V0Z" fill="#459F46"/>
<path fill-rule="evenodd" clip-rule="evenodd" d="M34.0243 17.628C34.6783 17.9407 35.3322 18.3103 35.9009 18.7652L37.5783 17.0878C37.948 16.7181 38.6019 16.7181 38.9715 17.0878L40.649 18.7652C41.0186 19.1349 41.0186 19.7888 40.649 20.1584C40.2794 20.528 39.6823 20.528 39.2843 20.1584L38.2607 19.1349L37.2372 20.1016C38.346 21.4663 39.1137 23.2291 39.3696 25.3899L39.6539 25.1056C40.0235 24.736 40.6206 24.736 41.0186 25.1056L42.7246 26.7831C43.0942 27.1527 43.0942 27.7498 42.7246 28.1479C42.3549 28.5175 41.701 28.5175 41.3598 28.1479L40.3363 27.1812L39.4264 28.0626C39.3411 29.7969 38.9431 31.446 38.346 32.896L39.5402 32.9245C40.0804 32.9245 40.5068 33.3794 40.5068 33.8627L40.4784 36.2795C40.4784 36.8197 40.0235 37.2177 39.5117 37.2177C38.9999 37.2177 38.5735 36.7628 38.5735 36.2795V34.8579L37.4078 34.8294C35.5028 37.957 32.5174 39.9757 29.1056 39.9757C25.7221 39.9757 22.7083 37.957 20.8318 34.8294L19.6661 34.8579V36.2795C19.6661 36.7913 19.2112 37.2177 18.7278 37.2177C18.1876 37.2177 17.7611 36.8197 17.7611 36.2795L17.7327 33.8627C17.7327 33.351 18.1876 32.9245 18.6994 32.9245L19.8936 32.896C19.2965 31.446 18.9269 29.7969 18.8131 28.0626L17.9033 27.1812L16.8797 28.1479C16.5386 28.5175 15.9131 28.5175 15.515 28.1479C15.1454 27.7782 15.1454 27.1812 15.515 26.7831L17.2209 25.1056C17.5906 24.736 18.1876 24.736 18.5857 25.1056L18.87 25.3899C19.1259 23.2291 19.8936 21.4663 21.0024 20.1016L19.9788 19.1349L18.9553 20.1584C18.5857 20.528 17.9886 20.528 17.5905 20.1584C17.2209 19.7888 17.2209 19.1349 17.5905 18.7652L19.268 17.0878C19.6377 16.7181 20.2916 16.7181 20.6328 17.0878L22.3387 18.7652C22.9074 18.3103 23.5329 17.9407 24.2152 17.628C24.1868 17.4574 24.1584 17.2868 24.1584 17.0878C24.1584 15.4103 25.0113 13.4484 26.6035 12.4533L25.779 11.6288L25.1819 12.2258C24.9545 12.4533 24.6133 12.4533 24.3858 12.2258C24.1299 11.9984 24.1299 11.6288 24.3858 11.4013L25.3525 10.4346C25.58 10.2072 25.9496 10.2072 26.1771 10.4346L27.684 11.9415C28.1389 11.7709 28.5938 11.7141 29.1056 11.7141C29.6458 11.7141 30.1291 11.7709 30.5556 11.9415L32.0625 10.4346C32.29 10.2072 32.6596 10.2072 32.887 10.4346L33.8537 11.4013C34.1096 11.6288 34.1096 11.9984 33.8537 12.2258C33.6263 12.4533 33.2851 12.4533 33.0576 12.2258L32.4606 11.6288L31.636 12.4533C33.2282 13.4769 34.0812 15.4387 34.0812 17.0878C34.0812 17.2868 34.0528 17.4574 34.0243 17.628Z" fill="#E8E85F"/>
<path fill-rule="evenodd" clip-rule="evenodd" d="M34.0243 17.628C34.6782 17.9407 35.3322 18.3103 35.9008 18.7652L37.5783 17.0878C37.948 16.7181 38.6019 16.7181 38.9715 17.0878L40.649 18.7652C41.0186 19.1349 41.0186 19.7888 40.649 20.1584C40.2794 20.528 39.6823 20.528 39.2843 20.1584L38.2607 19.1349L37.2371 20.1016C38.346 21.4663 39.1137 23.2291 39.3696 25.3899L39.6539 25.1056C40.0235 24.736 40.6206 24.736 41.0187 25.1056L42.7246 26.7831C43.0942 27.1527 43.0942 27.7498 42.7246 28.1479C42.355 28.5175 41.701 28.5175 41.3598 28.1479L40.3363 27.1812L39.4264 28.0626C39.3411 29.7969 38.9431 31.446 38.346 32.896L39.5402 32.9245C40.0804 32.9245 40.5069 33.3794 40.5069 33.8627L40.4784 36.2795C40.4784 36.8197 40.0235 37.2177 39.5117 37.2177C38.9999 37.2177 38.5735 36.7628 38.5735 36.2795V34.8579L37.4078 34.8294C35.5028 37.957 32.5174 39.9757 29.1055 39.9757V11.7141C29.6457 11.7141 30.1291 11.7709 30.5556 11.9415L32.0625 10.4346C32.2899 10.2072 32.6596 10.2072 32.887 10.4346L33.8537 11.4013C34.1096 11.6288 34.1096 11.9984 33.8537 12.2258C33.6263 12.4533 33.2851 12.4533 33.0576 12.2258L32.4605 11.6288L31.636 12.4533C33.2282 13.4769 34.0812 15.4387 34.0812 17.0878C34.0812 17.2868 34.0527 17.4574 34.0243 17.628Z" fill="#BFD330"/>
<path d="M21.173 58.6556H23.4192C23.8741 58.6556 24.1869 58.684 24.3859 58.7124C24.6133 58.7409 24.7839 58.7977 24.983 58.9399C25.1536 59.0536 25.2957 59.2242 25.381 59.4232C25.4947 59.6223 25.58 59.8213 25.58 60.0487C25.58 60.3331 25.5232 60.5605 25.3526 60.788C25.2388 61.0154 25.0398 61.1576 24.7839 61.2998C25.1251 61.3851 25.381 61.5557 25.58 61.8115C25.7791 62.039 25.8359 62.3233 25.8359 62.6361C25.8359 62.9204 25.8075 63.1479 25.6653 63.4037C25.5516 63.6596 25.381 63.8587 25.182 63.9724C24.9545 64.143 24.6986 64.1998 24.4143 64.2567C24.2153 64.2567 23.7604 64.2852 23.0496 64.2852H21.1162V58.6556H21.173ZM22.3103 59.5938V60.9017H23.0496C23.5045 60.9017 23.7888 60.9017 23.8741 60.9017C24.0731 60.8733 24.2153 60.8164 24.3575 60.6743C24.4427 60.589 24.528 60.4184 24.528 60.2762C24.528 60.0772 24.4996 59.9635 24.4143 59.8213C24.3006 59.736 24.1584 59.6507 23.9594 59.6223C23.8741 59.6223 23.5045 59.5938 23.0211 59.5938H22.3103ZM22.3103 61.84V63.3184H23.3623C23.7604 63.3184 24.0163 63.3185 24.1584 63.29C24.329 63.2616 24.4428 63.2047 24.5565 63.0626C24.6418 62.9488 24.7271 62.7782 24.7271 62.5792C24.7271 62.3802 24.6702 62.2665 24.6133 62.1243C24.5281 62.039 24.3859 61.9253 24.2722 61.8684C24.1016 61.84 23.7604 61.8115 23.2486 61.8115H22.3103V61.84ZM26.8026 58.6556H27.9399V61.6978C27.9399 62.1812 27.9399 62.4939 27.9683 62.6076C28.0252 62.8351 28.1674 63.0057 28.3095 63.1763C28.5086 63.29 28.7644 63.3753 29.0772 63.3753C29.39 63.3753 29.6458 63.3184 29.8164 63.1763C29.987 63.0626 30.0723 62.892 30.1008 62.6929C30.1292 62.4939 30.1576 62.1812 30.1576 61.7547V58.6556H31.2665V61.5841C31.2665 62.238 31.238 62.7214 31.1812 63.0057C31.1243 63.29 31.0106 63.5175 30.8684 63.6881C30.6978 63.8871 30.4988 64.0293 30.2145 64.143C29.9302 64.2567 29.589 64.342 29.1341 64.342C28.5939 64.342 28.1958 64.2852 27.9399 64.143C27.6556 64.0293 27.4281 63.8587 27.286 63.6596C27.1154 63.4322 27.0017 63.2616 26.9732 63.0341C26.9164 62.7214 26.8595 62.238 26.8595 61.6125V58.6556H26.8026ZM35.0764 62.2096V61.2713H37.5216V63.489C37.2941 63.7449 36.9529 63.944 36.498 64.0861C36.0147 64.2851 35.5882 64.3704 35.1048 64.3704C34.5362 64.3704 34.0244 64.2567 33.5979 64.0008C33.143 63.7449 32.8303 63.4037 32.6312 62.9488C32.4038 62.4655 32.3185 62.0106 32.3185 61.4704C32.3185 60.8733 32.4322 60.3615 32.6597 59.935C32.9156 59.4517 33.2567 59.1105 33.7401 58.883C34.1097 58.684 34.5646 58.5987 35.1048 58.5987C35.7588 58.5987 36.3274 58.7693 36.7255 59.0536C37.0951 59.3379 37.351 59.736 37.4931 60.2478L36.3558 60.4752C36.299 60.1909 36.1284 59.9635 35.9009 59.8213C35.6735 59.6791 35.4176 59.5654 35.1048 59.5654C34.593 59.5654 34.2234 59.736 33.9107 60.0487C33.6264 60.3615 33.5126 60.8449 33.5126 61.4419C33.5126 62.0959 33.6263 62.6076 33.9675 62.9488C34.2519 63.2616 34.6215 63.4322 35.1048 63.4322C35.3607 63.4322 35.5882 63.4037 35.8441 63.3184C36.0715 63.2332 36.299 63.091 36.4411 62.9773V62.2949H35.0764V62.2096Z" fill="#414042"/>
</g>
<defs>
<filter id="filter0_d" x="0" y="0" width="58.1828" height="72.3704" filterUnits="userSpaceOnUse" color-interpolation-filters="sRGB">
<feFlood flood-opacity="0" result="BackgroundImageFix"/>
<feColorMatrix in="SourceAlpha" type="matrix" values="0 0 0 0 0 0 0 0 0 0 0 0 0 0 0 0 0 0 127 0"/>
<feOffset dy="4"/>
<feGaussianBlur stdDeviation="2"/>
<feColorMatrix type="matrix" values="0 0 0 0 0 0 0 0 0 0 0 0 0 0 0 0 0 0 0.25 0"/>
<feBlend mode="normal" in2="BackgroundImageFix" result="effect1_dropShadow"/>
<feBlend mode="normal" in="SourceGraphic" in2="effect1_dropShadow" result="shape"/>
</filter>
</defs>
</svg>
