<svg width="59" height="73" viewBox="0 0 59 73" fill="none" xmlns="http://www.w3.org/2000/svg">
<g filter="url(#filter0_d)">
<path fill-rule="evenodd" clip-rule="evenodd" d="M29.1056 0C42.9521 0 54.1828 11.2307 54.1828 25.1056C54.1828 38.9521 42.9521 50.1828 29.1056 50.1828C15.2307 50.1828 4 38.9521 4 25.1056C4 11.2307 15.2307 0 29.1056 0Z" fill="#C03995"/>
<path fill-rule="evenodd" clip-rule="evenodd" d="M29.1057 0C42.9521 0 54.1828 11.2307 54.1828 25.1056C54.1828 38.9521 42.9521 50.1828 29.1057 50.1828V0Z" fill="#B11F83"/>
<path fill-rule="evenodd" clip-rule="evenodd" d="M29.1056 5.74332C32.1763 5.74332 35.1048 6.48255 37.6921 7.76199C36.5833 7.44924 35.446 7.27866 34.2518 7.27866C26.9732 7.27866 21.0877 13.1925 21.0877 20.4712C21.0877 27.7498 26.9732 33.6353 34.2518 33.6353C41.5305 33.6353 47.4443 27.7498 47.4443 20.4712C47.4443 19.7888 47.3875 19.078 47.2737 18.4241C48.0414 20.4996 48.4395 22.7458 48.4395 25.1341C48.4395 35.8246 39.7677 44.4964 29.0772 44.4964C18.3583 44.4964 9.68646 35.8246 9.68646 25.1341C9.71489 14.3867 18.3867 5.74332 29.1056 5.74332Z" fill="#F3B81A"/>
<path fill-rule="evenodd" clip-rule="evenodd" d="M29.1057 5.74332C32.1763 5.74332 35.1048 6.48255 37.6922 7.76199C36.5833 7.44924 35.446 7.27866 34.2519 7.27866C32.4038 7.27866 30.6694 7.64828 29.1057 8.35908V5.74332ZM29.1057 32.5833C30.6979 33.2372 32.4322 33.6353 34.2519 33.6353C41.5305 33.6353 47.4444 27.7498 47.4444 20.4712C47.4444 19.7888 47.3875 19.078 47.2738 18.4241C48.0414 20.4996 48.4395 22.7458 48.4395 25.1341C48.4395 35.8246 39.7677 44.4964 29.0772 44.4964V32.5833H29.1057Z" fill="#F48B20"/>
<path d="M18.5857 58.6555H20.6328C21.1162 58.6555 21.4573 58.684 21.7132 58.7409C22.026 58.8262 22.3103 59.0252 22.5378 59.2811C22.7937 59.5085 22.9358 59.8213 23.078 60.1625C23.1917 60.5321 23.277 60.9586 23.277 61.4988C23.277 61.9821 23.2201 62.3517 23.1064 62.6929C22.9358 63.091 22.7652 63.4322 22.5093 63.6596C22.3103 63.8586 22.026 64.0008 21.7132 64.1145C21.4573 64.1714 21.1161 64.2283 20.6897 64.2283H18.5573V58.6555H18.5857ZM19.723 59.6222V63.3184H20.5475C20.8603 63.3184 21.0877 63.29 21.2299 63.2616C21.4289 63.2331 21.5426 63.1478 21.6848 63.0341C21.7985 62.9204 21.9123 62.7498 21.9976 62.4939C22.0544 62.238 22.0829 61.8968 22.0829 61.4419C22.0829 61.0439 22.0544 60.6742 21.9976 60.4752C21.9123 60.2478 21.7985 60.0772 21.6564 59.935C21.5426 59.8213 21.3721 59.7075 21.1446 59.6791C20.974 59.6223 20.6612 59.6222 20.2348 59.6222H19.723ZM29.2762 64.2567H28.0536L27.5418 63.0057H25.3241L24.8408 64.2567H23.6466L25.8359 58.6555H27.0301L29.2762 64.2567ZM27.1722 62.039L26.4046 59.9634L25.6369 62.039H27.1722ZM29.8733 64.2567V58.6555H32.2332C32.8302 58.6555 33.2851 58.7124 33.541 58.8262C33.8254 58.9114 34.0244 59.1105 34.195 59.3664C34.3656 59.6222 34.4224 59.9066 34.4224 60.2478C34.4224 60.6458 34.3087 61.0154 34.0812 61.2713C33.8254 61.5556 33.4557 61.7262 32.9724 61.8115C33.1998 61.9253 33.4273 62.0959 33.5695 62.2949C33.7401 62.4655 33.9391 62.7498 34.195 63.1763L34.8773 64.2851H33.5126L32.6881 63.0625C32.4037 62.6076 32.2047 62.3802 32.091 62.238C32.0057 62.1527 31.8635 62.039 31.7782 62.0106C31.6645 61.9821 31.4655 61.9537 31.2096 61.9537H30.9537V64.2851H29.8733V64.2567ZM30.9821 61.0439H31.8351C32.3753 61.0439 32.7165 61.0154 32.8587 60.987C32.9724 60.9301 33.1145 60.8733 33.1714 60.7311C33.2283 60.6458 33.2852 60.4752 33.2852 60.3331C33.2852 60.134 33.2283 59.9919 33.1145 59.8497C33.0293 59.7644 32.8587 59.6507 32.6596 59.6222C32.5743 59.6222 32.3184 59.6222 31.8351 59.6222H30.9537V61.0439H30.9821ZM35.5029 64.2567V58.6555H36.6401V61.1291L38.9147 58.6555H40.4216L38.3461 60.8448L40.5638 64.2567H39.1138L37.5784 61.6409L36.6686 62.5508V64.2567H35.5029Z" fill="#414042"/>
</g>
<defs>
<filter id="filter0_d" x="0" y="0" width="58.1828" height="72.2851" filterUnits="userSpaceOnUse" color-interpolation-filters="sRGB">
<feFlood flood-opacity="0" result="BackgroundImageFix"/>
<feColorMatrix in="SourceAlpha" type="matrix" values="0 0 0 0 0 0 0 0 0 0 0 0 0 0 0 0 0 0 127 0"/>
<feOffset dy="4"/>
<feGaussianBlur stdDeviation="2"/>
<feColorMatrix type="matrix" values="0 0 0 0 0 0 0 0 0 0 0 0 0 0 0 0 0 0 0.25 0"/>
<feBlend mode="normal" in2="BackgroundImageFix" result="effect1_dropShadow"/>
<feBlend mode="normal" in="SourceGraphic" in2="effect1_dropShadow" result="shape"/>
</filter>
</defs>
</svg>
