<svg width="59" height="73" viewBox="0 0 59 73" fill="none" xmlns="http://www.w3.org/2000/svg">
<g filter="url(#filter0_d)">
<path fill-rule="evenodd" clip-rule="evenodd" d="M29.0772 0C42.9521 0 54.1828 11.2307 54.1828 25.1056C54.1828 38.9521 42.9521 50.1828 29.0772 50.1828C15.2307 50.1828 4 38.9805 4 25.1056C4 11.2307 15.2307 0 29.0772 0Z" fill="#B92025"/>
<path fill-rule="evenodd" clip-rule="evenodd" d="M29.0772 0C42.9521 0 54.1828 11.2307 54.1828 25.1056C54.1828 38.9521 42.9521 50.1828 29.0772 50.1828V0Z" fill="#8F191C"/>
<path fill-rule="evenodd" clip-rule="evenodd" d="M18.472 9.3542C20.1211 9.3542 21.4858 10.719 21.4858 12.3964V18.3672C21.4858 20.0163 20.1211 21.381 18.472 21.381C16.7945 21.381 15.4297 20.0163 15.4297 18.3672V12.3964C15.4582 10.6905 16.7945 9.3542 18.472 9.3542ZM33.6263 35.9667C34.9911 35.9667 36.0999 37.0756 36.0999 38.4403V40.4306C36.0999 41.7953 34.9626 42.9326 33.6263 42.9326H25.2104C23.8457 42.9326 22.7368 41.7953 22.7368 40.4306V38.4403C22.7368 37.0756 23.8457 35.9667 25.2104 35.9667H33.6263ZM40.2226 22.6889C41.5873 22.6889 42.7246 23.7977 42.7246 25.1625V32.2137C42.7246 33.5784 41.5873 34.7157 40.2226 34.7157C36.299 34.7157 32.3469 34.7157 28.4232 34.7157C27.1154 34.7157 26.0918 33.6353 26.0918 32.3558C26.0918 31.1048 27.1438 30.0244 28.4232 30.0244H31.4371V25.1909C31.4371 23.8262 32.5459 22.7173 33.9107 22.7173H40.2226V22.6889ZM17.9318 22.6889C16.567 22.6889 15.4297 23.7977 15.4297 25.1625V32.2137C15.4297 33.5784 16.567 34.7157 17.9318 34.7157H22.3388C23.7035 34.7157 24.8124 33.5784 24.8124 32.2137V28.7449H27.1438C28.8213 28.7449 30.186 27.3802 30.186 25.7027C30.186 24.0536 28.8213 22.6889 27.1438 22.6889C24.0731 22.6889 21.0025 22.6889 17.9318 22.6889ZM40.052 10.6621C41.502 10.6621 42.7531 11.8562 42.7531 13.3631V18.68C42.7531 20.1584 41.5305 21.381 40.052 21.381C38.5735 21.381 37.351 20.1869 37.351 18.68V13.3631C37.351 11.8562 38.5735 10.6621 40.052 10.6621ZM25.7791 7.30708C27.4281 7.30708 28.7929 8.67182 28.7929 10.3209V18.3388C28.7929 19.9878 27.4281 21.3526 25.7791 21.3526C24.1016 21.3526 22.7368 19.9878 22.7368 18.3388V10.3209C22.7368 8.67182 24.1016 7.30708 25.7791 7.30708ZM33.0577 9.3542C34.7352 9.3542 36.0999 10.719 36.0999 12.3964V18.3672C36.0999 20.0163 34.7352 21.381 33.0577 21.381C31.4086 21.381 30.0439 20.0163 30.0439 18.3672V12.3964C30.0439 10.6905 31.4086 9.3542 33.0577 9.3542Z" fill="#E8E85F"/>
<path fill-rule="evenodd" clip-rule="evenodd" d="M29.0772 42.8757V35.9383H33.6264C34.9911 35.9383 36.1 37.0471 36.1 38.4119V40.4021C36.1 41.7669 34.9627 42.8757 33.6264 42.8757H29.0772ZM29.0772 34.6873V29.9675H31.4371V25.134C31.4371 23.7693 32.5459 22.6604 33.9107 22.6604H40.2226C41.5874 22.6604 42.7247 23.7693 42.7247 25.134V32.1852C42.7247 33.55 41.5874 34.6873 40.2226 34.6873H29.0772ZM29.0772 28.0341V23.3712C29.7311 23.9399 30.1861 24.7644 30.1861 25.6742C30.1861 26.6409 29.7311 27.4655 29.0772 28.0341ZM40.052 10.6621C41.5021 10.6621 42.7531 11.8562 42.7531 13.3631V18.6799C42.7531 20.1584 41.5305 21.381 40.052 21.381C38.5736 21.381 37.351 20.1868 37.351 18.6799V13.3631C37.351 11.8562 38.5736 10.6621 40.052 10.6621ZM33.0577 9.35419C34.7352 9.35419 36.1 10.7189 36.1 12.3964V18.3672C36.1 20.0163 34.7352 21.381 33.0577 21.381C31.4086 21.381 30.0439 20.0163 30.0439 18.3672V12.3964C30.0439 10.6905 31.4086 9.35419 33.0577 9.35419Z" fill="#BFD330"/>
<path d="M11.0228 64.2567V58.6556H14.8895V59.5938H12.1601V60.9301H14.4915V61.8684H12.1601V64.2283H11.0228V64.2567ZM15.7709 64.2567V58.6556H16.9082V64.2567H15.7709ZM20.576 62.2096V61.2713H23.0211V63.489C22.7653 63.7449 22.4525 63.944 21.9692 64.0861C21.5142 64.2851 21.0878 64.3704 20.6044 64.3704C20.0358 64.3704 19.524 64.2567 19.0975 64.0008C18.6426 63.7449 18.3298 63.4037 18.1308 62.9488C17.9034 62.4655 17.8181 62.0106 17.8181 61.4704C17.8181 60.8733 17.9034 60.3615 18.1592 59.935C18.4151 59.4517 18.7563 59.1105 19.2397 58.883C19.5808 58.684 20.0358 58.5987 20.576 58.5987C21.2583 58.5987 21.7986 58.7693 22.225 59.0536C22.5947 59.3379 22.8505 59.736 22.9927 60.2478L21.8554 60.4752C21.7986 60.1909 21.628 59.9635 21.4005 59.8213C21.1731 59.6507 20.9172 59.5654 20.576 59.5654C20.0926 59.5654 19.6946 59.736 19.4103 60.0487C19.1259 60.3615 18.9553 60.8449 18.9553 61.4419C18.9553 62.0959 19.1259 62.6076 19.4103 62.9488C19.723 63.2616 20.0926 63.4322 20.576 63.4322C20.8034 63.4322 21.0593 63.4037 21.2583 63.3184C21.5142 63.2332 21.7133 63.091 21.8839 62.9773V62.2949H20.576V62.2096ZM24.0447 64.2567V58.6556H25.182V60.8733H27.3997V58.6556H28.5085V64.2567H27.3997V61.7831H25.182V64.2567H24.0447ZM30.9537 64.2567V59.6223H29.2762V58.684H33.7401V59.6223H32.091V64.2567H30.9537ZM34.4224 64.2567V58.6556H35.5597V64.2567H34.4224ZM36.6402 64.2567V58.6556H37.749L40.0236 62.3802V58.6556H41.0756V64.2567H39.9383L37.6921 60.589V64.2567H36.6402ZM44.857 62.2096V61.2713H47.3022V63.489C47.0748 63.7449 46.7336 63.944 46.2787 64.0861C45.7953 64.2851 45.3688 64.3704 44.8855 64.3704C44.3168 64.3704 43.8051 64.2567 43.3786 64.0008C42.9237 63.7449 42.6109 63.4037 42.4119 62.9488C42.1844 62.4655 42.0991 62.0106 42.0991 61.4704C42.0991 60.8733 42.2129 60.3615 42.4403 59.935C42.6962 59.4517 43.0374 59.1105 43.5207 58.883C43.8904 58.684 44.3453 58.5987 44.857 58.5987C45.5394 58.5987 46.1081 58.7693 46.5061 59.0536C46.8757 59.3379 47.1316 59.736 47.2738 60.2478L46.1365 60.4752C46.0796 60.1909 45.909 59.9635 45.6816 59.8213C45.4541 59.6507 45.1982 59.5654 44.857 59.5654C44.3737 59.5654 44.0041 59.736 43.6913 60.0487C43.407 60.3615 43.2933 60.8449 43.2933 61.4419C43.2933 62.0959 43.407 62.6076 43.6913 62.9488C44.0041 63.2616 44.3737 63.4322 44.857 63.4322C45.1129 63.4322 45.3404 63.4037 45.5963 63.3184C45.8237 63.2332 46.0512 63.091 46.1934 62.9773V62.2949H44.857V62.2096Z" fill="#414042"/>
</g>
<defs>
<filter id="filter0_d" x="0" y="0" width="58.1828" height="72.3704" filterUnits="userSpaceOnUse" color-interpolation-filters="sRGB">
<feFlood flood-opacity="0" result="BackgroundImageFix"/>
<feColorMatrix in="SourceAlpha" type="matrix" values="0 0 0 0 0 0 0 0 0 0 0 0 0 0 0 0 0 0 127 0"/>
<feOffset dy="4"/>
<feGaussianBlur stdDeviation="2"/>
<feColorMatrix type="matrix" values="0 0 0 0 0 0 0 0 0 0 0 0 0 0 0 0 0 0 0.25 0"/>
<feBlend mode="normal" in2="BackgroundImageFix" result="effect1_dropShadow"/>
<feBlend mode="normal" in="SourceGraphic" in2="effect1_dropShadow" result="shape"/>
</filter>
</defs>
</svg>
