<svg width="59" height="73" viewBox="0 0 59 73" fill="none" xmlns="http://www.w3.org/2000/svg">
<g filter="url(#filter0_d)">
<path fill-rule="evenodd" clip-rule="evenodd" d="M29.0772 0C42.9521 0 54.1828 11.2307 54.1828 25.0772C54.1828 38.9521 42.9521 50.1828 29.0772 50.1828C15.2307 50.1828 4 38.9521 4 25.0772C4.02843 11.2307 15.2307 0 29.0772 0Z" fill="#56B947"/>
<path fill-rule="evenodd" clip-rule="evenodd" d="M29.0771 0C42.9521 0 54.1828 11.2307 54.1828 25.0772C54.1828 38.9521 42.9521 50.1828 29.0771 50.1828V0Z" fill="#459F46"/>
<path fill-rule="evenodd" clip-rule="evenodd" d="M28.0252 7.42079C23.1348 11.4013 8.66285 29.342 25.58 38.7531C29.3046 40.8286 28.082 45.3209 28.082 45.3209C28.537 45.4062 29.6174 45.4062 30.0723 45.3209C30.0723 45.3209 28.8497 40.857 32.5743 38.7531C51.7945 27.7782 33.8254 20.6702 30.1576 7.44922C29.8448 6.31194 28.8781 6.73842 28.0252 7.42079Z" fill="#E8E85F"/>
<path fill-rule="evenodd" clip-rule="evenodd" d="M29.0772 45.4062C29.4468 45.4062 29.8448 45.3777 30.0439 45.3493C30.0439 45.3493 28.8213 40.8854 32.5459 38.7815C51.766 27.8067 33.7969 20.6986 30.1292 7.47766C29.9301 6.82372 29.5321 6.68156 29.0487 6.82372V45.4062H29.0772Z" fill="#BFD330"/>
<path d="M18.5857 62.2096V61.2713H21.0309V63.489C20.775 63.7449 20.4338 63.944 19.9789 64.0861C19.524 64.2851 19.0975 64.3704 18.6142 64.3704C18.0455 64.3704 17.5053 64.2567 17.1073 64.0008C16.6523 63.7449 16.3396 63.4037 16.1406 62.9488C15.9131 62.4655 15.7994 62.0106 15.7994 61.4704C15.7994 60.8733 15.9131 60.3615 16.169 59.935C16.4249 59.4517 16.7661 59.1105 17.2494 58.883C17.5906 58.684 18.0455 58.5987 18.5857 58.5987C19.2681 58.5987 19.8083 58.7124 20.2348 59.0536C20.6044 59.3379 20.8603 59.736 20.974 60.2478L19.8652 60.4468C19.7799 60.1909 19.6377 59.9634 19.4103 59.8213C19.1828 59.6507 18.8985 59.5654 18.5857 59.5654C18.1024 59.5654 17.7043 59.736 17.42 60.0487C17.1357 60.3615 16.9651 60.8449 16.9651 61.4419C16.9651 62.0959 17.1357 62.6076 17.42 62.9204C17.7043 63.2616 18.1024 63.4322 18.5857 63.4322C18.8132 63.4322 19.0691 63.4037 19.2681 63.3184C19.524 63.2332 19.723 63.091 19.8936 62.9773V62.2949H18.5857V62.2096ZM22.0829 64.2567V58.6556H24.4428C25.0398 58.6556 25.4663 58.684 25.7506 58.8262C26.035 58.9115 26.234 59.0821 26.4046 59.3664C26.5752 59.6223 26.632 59.9066 26.632 60.2193C26.632 60.6743 26.5183 61.0154 26.2908 61.2713C26.035 61.5557 25.6653 61.7262 25.182 61.8115C25.4095 61.9253 25.6369 62.0959 25.7791 62.2665C25.9497 62.4655 26.1487 62.7498 26.4046 63.1763L27.0869 64.2851H25.7222L24.8977 63.0626C24.6134 62.6076 24.4143 62.3802 24.3006 62.238C24.2153 62.1527 24.0731 62.039 23.9878 62.0106C23.8741 61.9537 23.6751 61.9537 23.4192 61.9537H23.1633V64.2851H22.0829V64.2567ZM23.1917 61.0154H24.0447C24.5849 61.0154 24.9261 60.987 25.0683 60.9301C25.182 60.9017 25.3242 60.8448 25.381 60.7027C25.4379 60.589 25.4947 60.4468 25.4947 60.3046C25.4947 60.1056 25.4379 59.9634 25.3242 59.8213C25.2389 59.736 25.0683 59.6223 24.8692 59.5938C24.7839 59.5938 24.5281 59.5938 24.0447 59.5938H23.1633V61.0154H23.1917ZM32.7165 64.2567H31.5224L31.0106 62.9488H28.7644L28.3095 64.2567H27.1154L29.3047 58.6556H30.4988L32.7165 64.2567ZM30.6694 62.039L29.8733 59.9634L29.1056 62.039H30.6694ZM33.0293 62.4086L34.1381 62.3233C34.195 62.6645 34.3371 62.9488 34.5362 63.1194C34.7352 63.3184 35.0195 63.4037 35.3607 63.4037C35.7019 63.4037 35.9862 63.3184 36.1852 63.1479C36.3558 62.9773 36.4411 62.8351 36.4411 62.6076C36.4411 62.4939 36.4127 62.3802 36.3558 62.2949C36.2705 62.2096 36.1284 62.0959 35.9578 62.039C35.844 61.9821 35.5029 61.9253 35.048 61.7831C34.4509 61.6125 34.0244 61.4704 33.7969 61.2429C33.4558 60.9301 33.2852 60.5605 33.2852 60.1056C33.2852 59.8213 33.342 59.5654 33.5126 59.3095C33.6832 59.0536 33.9107 58.8546 34.195 58.7409C34.5077 58.6271 34.8774 58.5418 35.3038 58.5418C35.9862 58.5418 36.5264 58.7124 36.8961 58.9968C37.2372 59.3095 37.4363 59.736 37.4647 60.2193L36.3274 60.2762C36.299 59.9919 36.1568 59.7644 36.0146 59.6507C35.8441 59.537 35.645 59.4517 35.3323 59.4517C34.9911 59.4517 34.7352 59.537 34.5362 59.6791C34.4509 59.736 34.3656 59.8782 34.3656 60.0203C34.3656 60.134 34.4224 60.2762 34.5362 60.3331C34.7068 60.4468 35.0195 60.589 35.5882 60.7027C36.1284 60.8164 36.5264 60.987 36.7823 61.1007C37.0666 61.2145 37.2657 61.4135 37.4078 61.6694C37.5784 61.9253 37.6353 62.2096 37.6353 62.5508C37.6353 62.8635 37.55 63.1763 37.3794 63.4606C37.1804 63.7165 36.9245 63.944 36.6117 64.0577C36.2705 64.2283 35.8725 64.2851 35.3891 64.2851C34.7068 64.2851 34.1666 64.1146 33.7685 63.7734C33.3705 63.5175 33.143 63.0626 33.0293 62.4086ZM38.2608 62.4086L39.3696 62.3233C39.4265 62.6645 39.5687 62.9488 39.7393 63.1194C39.9667 63.3184 40.2226 63.4037 40.5638 63.4037C40.9334 63.4037 41.1893 63.3184 41.3883 63.1479C41.5874 62.9773 41.6727 62.8351 41.6727 62.6076C41.6727 62.4939 41.6442 62.3802 41.5589 62.2949C41.5021 62.2096 41.3599 62.0959 41.1609 62.039C41.0471 61.9821 40.7628 61.9253 40.2795 61.7831C39.6824 61.6125 39.2275 61.4704 39.0285 61.2429C38.6873 60.9301 38.4882 60.5605 38.4882 60.1056C38.4882 59.8213 38.5736 59.5654 38.7441 59.3095C38.9147 59.0536 39.1138 58.8546 39.4265 58.7409C39.7393 58.6271 40.0805 58.5418 40.5354 58.5418C41.2177 58.5418 41.7579 58.7124 42.1276 58.9968C42.4687 59.3095 42.6678 59.736 42.6962 60.2193L41.5589 60.2762C41.5021 59.9919 41.3883 59.7644 41.2462 59.6507C41.0756 59.537 40.8765 59.4517 40.5069 59.4517C40.1942 59.4517 39.9383 59.537 39.7393 59.6791C39.6255 59.736 39.5402 59.8782 39.5402 60.0203C39.5402 60.134 39.5971 60.2762 39.7393 60.3331C39.853 60.4468 40.2226 60.589 40.7912 60.7027C41.3315 60.8164 41.7295 60.987 41.9854 61.1007C42.2413 61.2145 42.4688 61.4135 42.6109 61.6694C42.7246 61.9253 42.8384 62.2096 42.8384 62.5508C42.8384 62.8635 42.7531 63.1763 42.554 63.4606C42.3835 63.7165 42.156 63.944 41.7864 64.0577C41.4736 64.2283 41.0471 64.2851 40.5922 64.2851C39.9099 64.2851 39.3412 64.1146 38.9432 63.7734C38.5451 63.5175 38.3177 63.0626 38.2608 62.4086Z" fill="#414042"/>
</g>
<defs>
<filter id="filter0_d" x="0" y="0" width="58.1828" height="72.3704" filterUnits="userSpaceOnUse" color-interpolation-filters="sRGB">
<feFlood flood-opacity="0" result="BackgroundImageFix"/>
<feColorMatrix in="SourceAlpha" type="matrix" values="0 0 0 0 0 0 0 0 0 0 0 0 0 0 0 0 0 0 127 0"/>
<feOffset dy="4"/>
<feGaussianBlur stdDeviation="2"/>
<feColorMatrix type="matrix" values="0 0 0 0 0 0 0 0 0 0 0 0 0 0 0 0 0 0 0.25 0"/>
<feBlend mode="normal" in2="BackgroundImageFix" result="effect1_dropShadow"/>
<feBlend mode="normal" in="SourceGraphic" in2="effect1_dropShadow" result="shape"/>
</filter>
</defs>
</svg>
