<svg width="59" height="73" viewBox="0 0 59 73" fill="none" xmlns="http://www.w3.org/2000/svg">
<g filter="url(#filter0_d)">
<path fill-rule="evenodd" clip-rule="evenodd" d="M29.1056 0C42.9521 0 54.1828 11.2307 54.1828 25.0772C54.1828 38.9237 42.9521 50.1544 29.1056 50.1544C15.2307 50.1544 4 38.9237 4 25.0772C4 11.2307 15.2307 0 29.1056 0Z" fill="#C03995"/>
<path fill-rule="evenodd" clip-rule="evenodd" d="M29.1057 3.8147e-06C42.9521 3.8147e-06 54.1828 11.2307 54.1828 25.0772C54.1828 38.9237 42.9521 50.1544 29.1057 50.1544V3.8147e-06Z" fill="#B11F83"/>
<path fill-rule="evenodd" clip-rule="evenodd" d="M28.9919 11.2307H29.1056H29.1909C41.1609 11.2307 50.8562 22.5751 50.8562 25.0772C50.8562 27.5792 41.1893 38.9236 29.1909 38.9236H29.1056H28.9919C17.0219 38.9236 7.32654 27.5792 7.32654 25.0772C7.32654 22.5751 16.9935 11.2307 28.9919 11.2307ZM29.1056 18.9927C32.4606 18.9927 35.1901 21.7222 35.1901 25.0772C35.1901 28.4322 32.4606 31.1617 29.1056 31.1617C25.7222 31.1617 23.0211 28.4322 23.0211 25.0772C23.0211 21.7222 25.7222 18.9927 29.1056 18.9927ZM29.0203 14.7847L29.1056 14.8132L29.1625 14.7847C38.4598 14.7847 45.9943 23.2291 45.9943 25.0487C45.9943 26.8684 38.4598 35.3128 29.1625 35.3128L29.1056 35.2843L29.0203 35.3128C19.723 35.3128 12.1885 26.8684 12.1885 25.0487C12.1885 23.2291 19.723 14.7847 29.0203 14.7847Z" fill="#F3B81A"/>
<path fill-rule="evenodd" clip-rule="evenodd" d="M29.1057 11.2307H29.1909C41.1609 11.2307 50.8563 22.5751 50.8563 25.0772C50.8563 27.5792 41.1893 38.9236 29.1909 38.9236H29.1057V35.3128L29.1625 35.3412C38.4598 35.3412 45.9944 26.8968 45.9944 25.0772C45.9944 23.2575 38.4598 14.8132 29.1625 14.8132L29.1057 14.8416V11.2307ZM29.1057 31.1332V18.9927C32.4606 18.9927 35.1901 21.7222 35.1901 25.0772C35.1901 28.4322 32.4606 31.1332 29.1057 31.1332Z" fill="#F48B20"/>
<path d="M12.5012 64.1998V58.5987H14.2924C14.9748 58.5987 15.4297 58.6271 15.6288 58.684C15.9699 58.7693 16.2258 58.9399 16.4533 59.2242C16.6808 59.5085 16.7661 59.8781 16.7661 60.3331C16.7661 60.6742 16.7092 60.9586 16.567 61.186C16.4533 61.4419 16.2827 61.5841 16.0837 61.7547C15.8847 61.8684 15.7141 61.9821 15.515 62.0106C15.2307 62.0674 14.8611 62.0958 14.3493 62.0958H13.5816V64.1714H12.5012V64.1998ZM13.6101 59.5654V61.1576H14.2356C14.6905 61.1576 14.9748 61.1576 15.117 61.1007C15.2876 61.0439 15.4013 60.9301 15.4582 60.8164C15.5435 60.7027 15.5719 60.5321 15.5719 60.3615C15.5719 60.1625 15.5435 60.0203 15.4013 59.8497C15.2876 59.736 15.117 59.6507 14.918 59.6222C14.8042 59.5938 14.5483 59.5654 14.1219 59.5654H13.6101ZM17.42 62.4086L18.5289 62.2949C18.5857 62.6645 18.7279 62.9488 18.9269 63.1194C19.1259 63.29 19.4102 63.3753 19.7514 63.3753C20.0926 63.3753 20.3769 63.3184 20.576 63.1478C20.775 62.9773 20.8319 62.8067 20.8319 62.6076C20.8319 62.4939 20.8034 62.3517 20.7466 62.2664C20.6613 62.1811 20.5191 62.0959 20.3485 62.0106C20.2348 61.9821 19.8936 61.8968 19.4387 61.7831C18.8416 61.6125 18.4151 61.4419 18.1877 61.2144C17.8465 60.9301 17.6759 60.5605 17.6759 60.1056C17.6759 59.8213 17.7327 59.5369 17.9033 59.2811C18.1024 59.0536 18.3014 58.883 18.6426 58.7408C18.9269 58.5703 19.2965 58.5134 19.723 58.5134C20.4622 58.5134 20.9456 58.684 21.3152 58.9967C21.6848 59.3095 21.8838 59.736 21.8838 60.2193L20.7466 60.2762C20.7181 59.9634 20.6328 59.7644 20.4622 59.6507C20.2916 59.5369 20.0642 59.4517 19.723 59.4517C19.3818 59.4517 19.1259 59.5085 18.9553 59.6507C18.8416 59.736 18.7563 59.8781 18.7563 59.9919C18.7563 60.1056 18.8132 60.2478 18.9269 60.3331C19.0975 60.4468 19.4387 60.5889 19.9789 60.7027C20.5191 60.8164 20.9172 60.9586 21.2015 61.1007C21.4574 61.2144 21.6564 61.4135 21.7986 61.6694C21.9691 61.8968 22.026 62.2096 22.026 62.5508C22.026 62.8635 21.9407 63.1478 21.7701 63.4322C21.5711 63.7165 21.3152 63.9439 21.0025 64.0577C20.6897 64.1714 20.2632 64.2567 19.7799 64.2567C19.0975 64.2567 18.5573 64.0861 18.1592 63.7733C17.7328 63.489 17.5053 63.0057 17.42 62.4086ZM24.3859 64.1998V61.8684L22.3388 58.5987H23.6751L24.983 60.8164L26.2908 58.5987H27.5987L25.5516 61.8684V64.1998H24.3859ZM31.693 62.1527L32.8018 62.4939C32.6028 63.091 32.3185 63.5743 31.9489 63.8587C31.5792 64.143 31.0674 64.3136 30.4704 64.3136C29.7311 64.3136 29.1056 64.0577 28.6223 63.5459C28.1389 63.0341 27.9399 62.3517 27.9399 61.4703C27.9399 60.5605 28.1674 59.8213 28.6223 59.3095C29.1341 58.7977 29.7596 58.5134 30.5272 58.5134C31.2096 58.5134 31.7782 58.7408 32.2047 59.1389C32.4606 59.3664 32.6596 59.7075 32.7734 60.1625L31.6645 60.4468C31.6077 60.134 31.4371 59.9066 31.2665 59.7644C31.039 59.5938 30.7831 59.5085 30.4988 59.5085C30.0439 59.5085 29.7311 59.6791 29.4752 59.9634C29.2194 60.2478 29.0772 60.7595 29.0772 61.4135C29.0772 62.0958 29.1909 62.6076 29.4468 62.892C29.7311 63.2047 30.0439 63.3753 30.4704 63.3753C30.7547 63.3753 31.0106 63.29 31.238 63.091C31.4371 62.892 31.6077 62.5792 31.693 62.1527ZM33.7685 64.1998V58.5987H34.9058V60.8164H37.1235V58.5987H38.2608V64.1998H37.1235V61.7547H34.9058V64.1998H33.7685ZM39.3412 64.1998V58.5987H40.4785V64.1998H39.3412ZM45.1414 62.1527L46.2502 62.4939C46.0797 63.091 45.7953 63.5743 45.3973 63.8587C45.0277 64.143 44.5159 64.3136 43.9188 64.3136C43.1796 64.3136 42.5825 64.0577 42.1276 63.5459C41.6158 63.0341 41.3883 62.3517 41.3883 61.4703C41.3883 60.5605 41.6442 59.8213 42.1276 59.3095C42.6109 58.7977 43.2364 58.5134 44.0325 58.5134C44.6865 58.5134 45.2551 58.7408 45.6816 59.1389C45.9375 59.3664 46.1365 59.7075 46.2502 60.1625L45.1414 60.4468C45.0845 60.134 44.9424 59.9066 44.7433 59.7644C44.5159 59.5938 44.26 59.5085 43.9757 59.5085C43.5776 59.5085 43.208 59.6791 42.9521 59.9634C42.6962 60.2478 42.5825 60.7595 42.5825 61.4135C42.5825 62.0958 42.6962 62.6076 42.9521 62.892C43.208 63.2047 43.5208 63.3753 43.9188 63.3753C44.2316 63.3753 44.4874 63.29 44.7149 63.091C44.8855 62.892 45.0561 62.5792 45.1414 62.1527Z" fill="#414042"/>
</g>
<defs>
<filter id="filter0_d" x="0" y="0" width="58.1828" height="72.3136" filterUnits="userSpaceOnUse" color-interpolation-filters="sRGB">
<feFlood flood-opacity="0" result="BackgroundImageFix"/>
<feColorMatrix in="SourceAlpha" type="matrix" values="0 0 0 0 0 0 0 0 0 0 0 0 0 0 0 0 0 0 127 0"/>
<feOffset dy="4"/>
<feGaussianBlur stdDeviation="2"/>
<feColorMatrix type="matrix" values="0 0 0 0 0 0 0 0 0 0 0 0 0 0 0 0 0 0 0.25 0"/>
<feBlend mode="normal" in2="BackgroundImageFix" result="effect1_dropShadow"/>
<feBlend mode="normal" in="SourceGraphic" in2="effect1_dropShadow" result="shape"/>
</filter>
</defs>
</svg>
