<svg width="59" height="73" viewBox="0 0 59 73" fill="none" xmlns="http://www.w3.org/2000/svg">
<g filter="url(#filter0_d)">
<path fill-rule="evenodd" clip-rule="evenodd" d="M29.1056 0C42.9521 0 54.1828 11.2307 54.1828 25.0772C54.1828 38.9521 42.9521 50.1828 29.1056 50.1828C15.2307 50.1828 4 38.9521 4 25.0772C4 11.2307 15.2307 0 29.1056 0Z" fill="#A69F97"/>
<path fill-rule="evenodd" clip-rule="evenodd" d="M29.1057 0C42.9521 0 54.1828 11.2307 54.1828 25.0772C54.1828 38.9521 42.9521 50.1828 29.1057 50.1828V0Z" fill="#927F6C"/>
<path fill-rule="evenodd" clip-rule="evenodd" d="M14.7758 37.8148C11.7904 36.9618 11.6767 36.1089 12.615 33.8343C16.2259 25.0203 21.5143 16.7466 26.2056 11.7425C27.087 10.8042 28.338 10.9464 29.3331 11.7425C30.8116 12.8513 31.0675 14.7279 32.4606 16.576C32.9724 17.2583 36.6402 17.1446 37.152 17.9123C37.6069 18.5662 38.0618 19.3054 38.5167 20.0731C39.0569 20.9829 39.5687 21.9212 40.0236 22.7742C41.0756 24.6507 41.2462 25.2478 40.1089 27.0959L34.0244 37.0471C33.0862 38.5825 32.2616 39.0942 30.442 39.0942C24.4428 39.1795 18.1024 38.7246 14.7758 37.8148ZM44.0325 30.3656C44.5728 31.5029 45.0845 32.6686 45.5394 33.8343C46.4777 36.1089 46.3924 36.9618 43.3786 37.8148C42.156 38.156 40.5069 38.4403 38.602 38.6393C36.8961 38.8384 37.1235 37.8432 37.8343 36.7059L41.0187 31.3891C42.5541 29.0008 42.81 27.7214 44.0325 30.3656Z" fill="#8B7E71"/>
<path fill-rule="evenodd" clip-rule="evenodd" d="M29.1057 11.5435C29.1625 11.5719 29.2762 11.6288 29.3615 11.7425C30.84 12.8513 31.0959 14.7279 32.4891 16.576C33.0009 17.2583 36.6686 17.1446 37.1804 17.9123C37.6353 18.5662 38.0902 19.3054 38.5451 20.0731C39.0854 20.9829 39.5971 21.9212 40.052 22.7742C41.104 24.6507 41.2746 25.2478 40.1373 27.0959L34.0528 37.0471C33.1146 38.5825 32.2901 39.0942 30.4704 39.0942C29.987 39.1227 29.5321 39.1227 29.0772 39.1227V11.5435H29.1057ZM36.2421 10.3777C37.55 10.3777 39.256 11.7425 39.256 12.9651C39.256 14.1592 37.5785 15.6946 36.2706 15.6946C34.9343 15.6946 34.5362 14.1876 34.5362 12.9651C34.5362 11.7425 34.9342 10.3777 36.2421 10.3777ZM44.0326 30.3656C44.5728 31.5028 45.0845 32.6686 45.5395 33.8343C46.4777 36.1089 46.3924 36.9618 43.3786 37.8148C42.156 38.156 40.507 38.4403 38.602 38.6393C36.8961 38.8383 37.1235 37.8432 37.8343 36.7059L41.0187 31.3891C42.5541 29.0008 42.81 27.7214 44.0326 30.3656Z" fill="#745C44"/>
<path d="M18.3583 64.2567V58.6556H20.7181C21.3152 58.6556 21.7701 58.684 22.0545 58.8262C22.3103 58.9115 22.5378 59.082 22.6799 59.3664C22.8505 59.6223 22.9358 59.9066 22.9358 60.2193C22.9358 60.6742 22.8221 61.0154 22.5662 61.2713C22.3103 61.5556 21.9691 61.7262 21.4574 61.8115C21.7133 61.9253 21.9123 62.0959 22.0545 62.2664C22.225 62.4655 22.4241 62.7498 22.7084 63.1763L23.3623 64.2851H21.9976L21.2015 63.0626C20.8887 62.6076 20.6897 62.3802 20.6044 62.238C20.4907 62.1527 20.3769 62.039 20.2632 62.0106C20.1495 61.9537 19.9505 61.9537 19.6946 61.9537H19.4671V64.2851H18.3583V64.2567ZM19.4956 61.0154H20.3201C20.8603 61.0154 21.2015 60.987 21.3437 60.9301C21.5142 60.9017 21.5995 60.8448 21.6564 60.7027C21.7417 60.589 21.7701 60.4468 21.7701 60.3046C21.7701 60.1056 21.7133 59.9634 21.5995 59.8213C21.5142 59.736 21.3721 59.6223 21.2015 59.5938C21.1162 59.5938 20.8319 59.5938 20.377 59.5938H19.4956V61.0154ZM23.7604 61.4703C23.7604 60.9017 23.8457 60.4184 24.0163 60.0487C24.13 59.7644 24.329 59.5085 24.5565 59.2811C24.7839 59.0536 25.0114 58.883 25.2957 58.7693C25.6369 58.5987 26.035 58.5418 26.4899 58.5418C27.3144 58.5418 27.9683 58.7977 28.4517 59.3095C28.9635 59.8213 29.2193 60.5321 29.2193 61.4419C29.2193 62.3517 28.9635 63.0626 28.4517 63.5743C27.9683 64.1145 27.3144 64.3704 26.4899 64.3704C25.6653 64.3704 25.0114 64.1145 24.4996 63.6028C24.0163 63.091 23.7604 62.3517 23.7604 61.4703ZM24.9261 61.4419C24.9261 62.0674 25.0967 62.5508 25.381 62.892C25.6653 63.2047 26.035 63.3753 26.4899 63.3753C26.9448 63.3753 27.3144 63.2047 27.5987 62.892C27.883 62.5508 28.0536 62.0674 28.0536 61.4419C28.0536 60.788 27.883 60.3046 27.5987 59.9919C27.3428 59.6791 26.9732 59.5085 26.4899 59.5085C26.0065 59.5085 25.6369 59.6791 25.3526 59.9919C25.0683 60.3331 24.9261 60.8164 24.9261 61.4419ZM33.6548 62.2096L34.7352 62.5508C34.5646 63.1478 34.2803 63.6028 33.9106 63.9155C33.5126 64.1998 33.0293 64.3704 32.4322 64.3704C31.6645 64.3704 31.0674 64.1145 30.5841 63.6028C30.1008 63.091 29.8449 62.4086 29.8449 61.5272C29.8449 60.5889 30.1008 59.8781 30.5841 59.3379C31.0674 58.8262 31.6929 58.5703 32.489 58.5703C33.1714 58.5703 33.7116 58.7693 34.1665 59.1673C34.4224 59.4232 34.6215 59.736 34.7352 60.2193L33.5979 60.4752C33.541 60.1909 33.3989 59.9634 33.1998 59.7929C33.0008 59.6223 32.7449 59.537 32.4322 59.537C32.0341 59.537 31.6645 59.7076 31.4086 59.9919C31.1527 60.3046 31.039 60.788 31.039 61.4419C31.039 62.1243 31.1527 62.6361 31.4086 62.9488C31.6645 63.2331 32.0057 63.4037 32.3753 63.4037C32.6881 63.4037 32.944 63.3184 33.1714 63.1194C33.3989 62.892 33.5695 62.6076 33.6548 62.2096ZM35.7303 64.2567V58.6556H36.8676V61.1292L39.1422 58.6556H40.6491L38.5735 60.8448L40.7912 64.2567H39.3412L37.8059 61.6409L36.8676 62.5508V64.2567H35.7303Z" fill="#414042"/>
</g>
<defs>
<filter id="filter0_d" x="0" y="0" width="58.1828" height="72.3704" filterUnits="userSpaceOnUse" color-interpolation-filters="sRGB">
<feFlood flood-opacity="0" result="BackgroundImageFix"/>
<feColorMatrix in="SourceAlpha" type="matrix" values="0 0 0 0 0 0 0 0 0 0 0 0 0 0 0 0 0 0 127 0"/>
<feOffset dy="4"/>
<feGaussianBlur stdDeviation="2"/>
<feColorMatrix type="matrix" values="0 0 0 0 0 0 0 0 0 0 0 0 0 0 0 0 0 0 0.25 0"/>
<feBlend mode="normal" in2="BackgroundImageFix" result="effect1_dropShadow"/>
<feBlend mode="normal" in="SourceGraphic" in2="effect1_dropShadow" result="shape"/>
</filter>
</defs>
</svg>
